<svg width="37" height="36" viewBox="0 0 37 36" fill="none" xmlns="http://www.w3.org/2000/svg">
<path d="M8.51153 22.702C8.62058 22.6323 8.74074 22.5626 8.87301 22.493C8.30695 20.8193 8.01674 19.0647 8.01372 17.2979V7.52357C8.0141 7.21435 8.24333 6.95317 8.5499 6.91268C11.9337 6.46853 15.2062 5.40213 18.202 3.76734C18.3858 3.66732 18.6078 3.66732 18.7917 3.76734C21.7878 5.40225 25.0606 6.46865 28.4448 6.91268C28.7514 6.95317 28.9806 7.21435 28.981 7.52357V17.2979C28.9758 20.2604 28.1669 23.166 26.6404 25.705L27.1231 25.9685L29.81 26.3825C31.2902 23.5822 32.0633 20.4623 32.0617 17.2948V4.0642C27.359 4.06034 22.755 2.7145 18.7907 0.184782L18.4979 0L18.204 0.184782C14.2391 2.71492 9.6344 4.06078 4.93099 4.0642V17.2979C4.93075 19.6046 5.34104 21.893 6.14268 24.056L8.51153 22.702Z" fill="white"/>
<path fill-rule="evenodd" clip-rule="evenodd" d="M18.4969 5.00683C18.4972 5.00666 18.4975 5.00648 18.4979 5.0063H18.4958C18.4962 5.00648 18.4965 5.00666 18.4969 5.00683ZM18.4969 5.00683C15.6086 6.53961 12.4811 7.57089 9.24763 8.05672V17.2979C9.25084 18.914 9.5137 20.519 10.0261 22.0517C11.5955 21.6862 13.2059 21.528 14.8164 21.5812C17.121 21.5249 19.4096 21.978 21.519 22.908L25.558 25.1122C26.9849 22.7544 27.7414 20.0519 27.7461 17.2958V8.05672C24.5126 7.57072 21.3852 6.53945 18.4969 5.00683ZM16.9035 19.3709L18.4979 17.7765L25.2813 10.991L23.4315 9.14118L18.4979 14.0748L16.0311 16.5416L13.5643 14.0748L11.7154 15.9266L15.1597 19.3709C15.3909 19.6021 15.7045 19.7321 16.0316 19.7321C16.3586 19.7321 16.6723 19.6021 16.9035 19.3709Z" fill="white"/>
<circle cx="7.69263" cy="32.9943" r="2.52435" fill="white"/>
<path fill-rule="evenodd" clip-rule="evenodd" d="M36.8509 30.9989L36.3642 29.4136C36.3523 29.3815 36.3378 29.3505 36.3208 29.3207C35.9456 28.7477 35.3141 28.394 34.6295 28.3736L26.7858 27.1619C26.7467 27.157 26.7089 27.1443 26.6747 27.1246L20.9333 23.9944C19.0032 23.1643 16.9157 22.7636 14.8153 22.82C10.6471 22.82 9.57983 23.4865 9.12343 23.7763L5.69031 25.7372C5.49907 25.8474 5.28199 25.9049 5.06125 25.9038H3.10538C1.81235 25.9305 0.751803 26.9364 0.656761 28.2262L0.0337511 30.7172C-0.0767079 31.2992 0.0871906 31.8997 0.478037 32.3449C0.976246 32.9429 1.71021 33.2942 2.48843 33.3072H3.70012C3.70012 31.2636 5.35675 29.607 7.40031 29.607C9.44387 29.607 11.1005 31.2636 11.1005 33.3072H25.2803C25.2803 31.2636 26.9369 29.607 28.9805 29.607C31.024 29.607 32.6807 31.2636 32.6807 33.3072H35.3696C35.9249 33.3081 36.4423 33.0259 36.7422 32.5586C37.0421 32.0913 37.0831 31.5033 36.8509 30.9989ZM14.1994 26.758C11.8376 26.6288 9.45361 26.4501 7.35437 26.2027L9.77774 24.8153C10.0918 24.6133 10.9066 24.1085 14.1994 24.057V26.758ZM15.4323 24.062V26.8247C18.7129 26.9913 21.8522 27.0609 24.0464 27.0993L20.3406 25.0798C18.7886 24.4173 17.1198 24.0712 15.4323 24.062Z" fill="white"/>
<circle cx="28.8972" cy="32.9943" r="2.52435" fill="white"/>
</svg>
