<svg width="62" height="63" viewBox="0 0 62 63" fill="none" xmlns="http://www.w3.org/2000/svg">
<ellipse cx="31" cy="31.2794" rx="31" ry="31.2794" fill="white"/>
<path fill-rule="evenodd" clip-rule="evenodd" d="M19.0701 14.7084C18.8615 15.0429 18.8379 15.4622 19.0077 15.8184L24.0337 26.3761L25.2958 23.721L28.0636 17.9077L29.3287 15.2526L29.128 14.8234C28.938 14.4232 28.5365 14.1694 28.0967 14.1715H20.035C19.6432 14.1711 19.2788 14.3739 19.0701 14.7084ZM30.2606 27.7072C28.4596 27.7073 26.6856 28.1488 25.0911 28.9938V28.4016C25.0911 28.3919 25.0937 28.3833 25.0962 28.3748C25.0985 28.3674 25.1007 28.3601 25.1012 28.352C25.1063 28.2337 25.1296 28.1169 25.1704 28.0059C25.1744 27.9954 25.1775 27.9846 25.1805 27.9738L25.1805 27.9738L25.1805 27.9738C25.1842 27.9605 25.1879 27.9473 25.1934 27.935C25.1993 27.9221 25.2 27.9173 25.2006 27.9137C25.201 27.911 25.2014 27.9089 25.2035 27.9046L31.4284 14.8234C31.6178 14.4251 32.0168 14.1716 32.4546 14.1715H40.5154C40.9071 14.1711 41.2716 14.3739 41.4802 14.7084C41.6889 15.0429 41.7125 15.4622 41.5427 15.8184L35.4301 28.6618V28.9938C33.8357 28.1476 32.0611 27.7057 30.2596 27.7062L30.2606 27.7072ZM20.7783 38.9988C20.7778 33.7153 25.0222 29.4316 30.2586 29.4311C35.495 29.4305 39.7403 33.7132 39.7409 38.9968C39.7414 44.2804 35.497 48.564 30.2606 48.5645C27.746 48.5648 25.3343 47.5572 23.556 45.7632C21.7778 43.9693 20.7786 41.5361 20.7783 38.9988Z" fill="#7F47FA"/>
<path fill-rule="evenodd" clip-rule="evenodd" d="M32.2169 36.2395L35.4522 36.7142L35.4552 36.7183C35.7206 36.758 35.9409 36.9457 36.024 37.2031C36.1071 37.4605 36.0387 37.7432 35.8475 37.933L33.503 40.2298L34.0558 43.475C34.101 43.7429 33.9916 44.0134 33.7736 44.1728C33.5555 44.3323 33.2666 44.3529 33.0285 44.2261L30.1292 42.6936L27.238 44.2231C27.1368 44.2778 27.0238 44.3067 26.9089 44.3071C26.6996 44.308 26.5006 44.2155 26.3652 44.0545C26.2298 43.8934 26.1718 43.6802 26.2067 43.472L26.7605 40.2267L24.42 37.9289C24.2287 37.7391 24.1604 37.4564 24.2435 37.1991C24.3266 36.9417 24.5469 36.7539 24.8122 36.7142L28.0526 36.2395L29.4992 33.2858C29.6194 33.0427 29.8655 32.8891 30.1347 32.8891C30.404 32.8891 30.6501 33.0427 30.7703 33.2858L32.2169 36.2395ZM32.3593 39.8551L32.7606 39.4624L34.5874 37.6707L32.0624 37.3002L31.5096 37.2192L31.2628 36.7131L30.1292 34.4072V41.4838L30.6308 41.746L32.885 42.9404L32.4536 40.4098L32.3593 39.8551Z" fill="white"/>
</svg>
