<svg width="18" height="14" viewBox="0 0 18 14" fill="none" xmlns="http://www.w3.org/2000/svg">
<path d="M16.6499 8.23549H1.3501C0.991859 8.23549 0.648306 8.10529 0.395085 7.87356C0.141864 7.64183 -0.000262468 7.32758 3.63891e-07 6.99998C3.63891e-07 6.31813 0.60446 5.76538 1.3501 5.76538H16.6499C17.3955 5.76538 18 6.31813 18 6.99998C18.0003 7.32758 17.8581 7.64183 17.6049 7.87356C17.3517 8.10529 17.0081 8.23549 16.6499 8.23549Z" fill="white"/>
<path d="M7.86188 14H1.3501C0.99203 14 0.648628 13.87 0.395435 13.6384C0.142242 13.4069 0 13.0929 0 12.7654C-9.64876e-08 12.4381 0.142274 12.1241 0.395495 11.8928C0.648716 11.6614 0.992122 11.5315 1.3501 11.5317H7.86188C8.21985 11.5315 8.56326 11.6614 8.81648 11.8928C9.0697 12.1241 9.21197 12.4381 9.21197 12.7654C9.21197 13.0929 9.06973 13.4069 8.81654 13.6384C8.56335 13.87 8.21994 14 7.86188 14Z" fill="white"/>
<path d="M14.0141 2.4683H1.3501C0.992122 2.46854 0.648716 2.33867 0.395495 2.10728C0.142274 1.87589 -9.64876e-08 1.56196 0 1.2346C0 0.907165 0.142242 0.593139 0.395435 0.361607C0.648628 0.130074 0.99203 3.32761e-07 1.3501 3.32761e-07H14.0131C14.3713 -0.000240015 14.715 0.129728 14.9684 0.361286C15.2218 0.592845 15.3642 0.907008 15.3642 1.2346C15.3642 1.56196 15.2219 1.87589 14.9687 2.10728C14.7155 2.33867 14.3721 2.46854 14.0141 2.4683Z" fill="white"/>
</svg>
