<svg width="66" height="43" viewBox="0 0 66 43" fill="none" xmlns="http://www.w3.org/2000/svg">
<path d="M58.8109 27.209H62.961V23.6235H58.8109V27.209Z" fill="#EA402C"/>
<path d="M62.9611 24.5669H60.4635V23.6233H59.7724H62.9611V24.5669Z" fill="#F36836"/>
<path d="M58.8109 27.209H60.4631V23.6235H58.8109V27.209Z" fill="#3C3C3A"/>
<path d="M58.8109 24.5349H60.447V23.6232H58.8109V24.5349Z" fill="#5A5C58"/>
<path d="M9.16662 41.5675H9.05668V27.0003H9.16662V41.5675Z" fill="#9C9C9B"/>
<path d="M11.3688 41.5675H11.2568V27.0003H11.3688V41.5675Z" fill="#9C9C9B"/>
<path d="M18.8213 33.3998H1.60167V33.307H18.8213V33.3998Z" fill="#9C9C9B"/>
<path d="M18.8213 35.2618H1.60167V35.1686H18.8213V35.2618Z" fill="#9C9C9B"/>
<path d="M8.36754 41.4519L8.25457 41.4442L9.86557 26.9419L9.97753 26.9507L8.36754 41.4519Z" fill="#9C9C9B"/>
<path d="M10.5576 41.626L10.4487 41.6183L12.0556 27.1154L12.1686 27.1241L10.5576 41.626Z" fill="#9C9C9B"/>
<path d="M18.8821 34.0847L1.73708 32.7233L1.74818 32.6287L18.8932 33.9911L18.8821 34.0847Z" fill="#9C9C9B"/>
<path d="M18.6761 35.9389L1.53208 34.5769L1.54218 34.484L18.6871 35.8454L18.6761 35.9389Z" fill="#9C9C9B"/>
<path d="M3.38438 38.8088L3.3067 38.7423L15.4835 28.4434L15.5632 28.5084L3.38438 38.8088Z" fill="#9C9C9B"/>
<path d="M4.94186 40.1256L4.86116 40.0592L17.04 29.7593L17.1187 29.8253L4.94186 40.1256Z" fill="#9C9C9B"/>
<path d="M2.72549 37.9904L2.6589 37.914L16.366 29.0964L16.4326 29.1702L2.72549 37.9904Z" fill="#9C9C9B"/>
<path d="M4.0593 39.4715L3.99071 39.3978L17.6978 30.5775L17.7654 30.654L4.0593 39.4715Z" fill="#9C9C9B"/>
<path d="M17.04 38.8088L4.86116 28.5084L4.94186 28.4434L17.1187 38.7423L17.04 38.8088Z" fill="#9C9C9B"/>
<path d="M15.4835 40.1256L3.3067 29.8253L3.38438 29.7593L15.5632 40.0592L15.4835 40.1256Z" fill="#9C9C9B"/>
<path d="M17.7615 37.8978L3.90503 29.247L3.97059 29.1722L17.827 37.8234L17.7615 37.8978Z" fill="#9C9C9B"/>
<path d="M16.4529 39.3967L2.5965 30.7465L2.66307 30.67L16.5185 39.3212L16.4529 39.3967Z" fill="#9C9C9B"/>
<path d="M10.2117 41.0799C5.77418 41.0799 2.17794 38.0352 2.17794 34.284C2.17794 30.5308 5.77418 27.4878 10.2117 27.4878C14.6493 27.4878 18.2455 30.5308 18.2455 34.284C18.2455 38.0352 14.6493 41.0799 10.2117 41.0799ZM10.2117 25.6482C4.57173 25.6482 0 29.5137 0 34.284C0 39.0549 4.57173 42.9205 10.2117 42.9205C15.8497 42.9205 20.4235 39.0549 20.4235 34.284C20.4235 29.5137 15.8497 25.6482 10.2117 25.6482Z" fill="#201F1E"/>
<path d="M10.2107 41.077C5.77513 41.077 2.17687 38.0339 2.17687 34.28C2.17687 30.5278 5.77513 27.4838 10.2107 27.4838C14.6493 27.4838 18.2465 30.5278 18.2465 34.28C18.2465 38.0339 14.6493 41.077 10.2107 41.077ZM10.2107 26.9466C5.42004 26.9466 1.53528 30.2317 1.53528 34.2844C1.53528 38.3371 5.42004 41.6228 10.2107 41.6228C15.0033 41.6228 18.8881 38.3371 18.8881 34.2844C18.8881 30.2317 15.0033 26.9466 10.2107 26.9466Z" fill="#100F0D"/>
<path d="M12.5702 34.2844C12.5702 35.3865 11.514 36.2802 10.2117 36.2802C8.90941 36.2802 7.85422 35.3865 7.85422 34.2844C7.85422 33.1822 8.90941 32.2892 10.2117 32.2892C11.514 32.2892 12.5702 33.1822 12.5702 34.2844Z" fill="#A4A49B"/>
<path d="M11.3062 34.2843C11.3062 34.796 10.817 35.2104 10.2117 35.2104C9.60845 35.2104 9.11818 34.796 9.11818 34.2843C9.11818 33.7735 9.60845 33.3587 10.2117 33.3587C10.817 33.3587 11.3062 33.7735 11.3062 34.2843Z" fill="#454543"/>
<path d="M22.0102 35.981C22.6326 32.6101 21.9658 28.8046 18.8679 26.4104C17.9701 25.718 16.9896 25.0936 15.9182 24.607C13.9401 23.703 11.6754 23.533 9.48938 23.8713C8.14671 24.0793 6.90391 24.4413 5.73273 25.0379C4.5787 25.6284 3.47006 26.3031 2.54603 27.1393C2.14152 27.5059 1.78441 27.917 1.3113 28.2261C1.16907 28.318 0.998572 28.3935 0.82002 28.4253C-0.162519 28.6037 0.777661 28.9172 1.23261 29.0175C2.1627 29.221 3.04235 28.8297 3.76261 28.3643C4.23269 28.0605 8.7116 24.2466 14.4414 26.6166C16.1442 27.3205 18.5027 28.5386 19.2774 31.6349C19.916 34.1723 19.4035 35.301 19.1756 35.6299C18.3161 36.873 21.5351 38.3709 22.3491 37.2153L22.0314 36.7751C21.9366 36.527 21.9658 36.2315 22.0102 35.981Z" fill="#C31E25"/>
<path d="M50.1074 41.5675H50.2174V27.0012H50.1074V41.5675Z" fill="#9C9C9B"/>
<path d="M52.4185 41.5675H52.3085V27.0003H52.4185V41.5675Z" fill="#9C9C9B"/>
<path d="M59.8733 33.3998H42.6526V33.307H59.8733V33.3998Z" fill="#9C9C9B"/>
<path d="M59.8733 35.2618H42.6526V35.1686H59.8733V35.2618Z" fill="#9C9C9B"/>
<path d="M49.4183 41.4519L49.3053 41.4449L50.9163 26.9403L51.0263 26.9514L49.4183 41.4519Z" fill="#9C9C9B"/>
<path d="M51.6095 41.626L51.4975 41.6183L53.1085 27.1154L53.2204 27.1241L51.6095 41.626Z" fill="#9C9C9B"/>
<path d="M59.9335 34.0847L42.7875 32.7233L42.7976 32.6287L59.9446 33.9911L59.9335 34.0847Z" fill="#9C9C9B"/>
<path d="M59.7269 35.9389L42.5819 34.5769L42.5911 34.484L59.7381 35.8454L59.7269 35.9389Z" fill="#9C9C9B"/>
<path d="M44.434 38.8088L44.3564 38.7423L56.5342 28.4434L56.6129 28.5084L44.434 38.8088Z" fill="#9C9C9B"/>
<path d="M45.9914 40.1256L45.9117 40.0592L58.0906 29.7593L58.1692 29.8253L45.9914 40.1256Z" fill="#9C9C9B"/>
<path d="M43.7774 37.9904L43.7088 37.914L57.4169 29.0964L57.4835 29.1702L43.7774 37.9904Z" fill="#9C9C9B"/>
<path d="M45.1091 39.4715L45.0425 39.3978L58.7496 30.5775L58.8172 30.654L45.1091 39.4715Z" fill="#9C9C9B"/>
<path d="M58.0906 38.8088L45.9117 28.5084L45.9914 28.4434L58.1692 38.7423L58.0906 38.8088Z" fill="#9C9C9B"/>
<path d="M56.5342 40.1256L44.3564 29.8253L44.434 29.7593L56.6129 40.0592L56.5342 40.1256Z" fill="#9C9C9B"/>
<path d="M58.8119 37.8978L44.9555 29.247L45.0221 29.1722L58.8765 37.8234L58.8119 37.8978Z" fill="#9C9C9B"/>
<path d="M57.5047 39.3967L43.6483 30.7465L43.7139 30.67L57.5703 39.3212L57.5047 39.3967Z" fill="#9C9C9B"/>
<path d="M51.2635 41.0799C46.826 41.0799 43.2267 38.0352 43.2267 34.284C43.2267 30.5308 46.826 27.4878 51.2635 27.4878C55.7001 27.4878 59.2994 30.5308 59.2994 34.284C59.2994 38.0352 55.7001 41.0799 51.2635 41.0799ZM51.2635 25.6482C45.6255 25.6482 41.0518 29.5137 41.0518 34.284C41.0518 39.0549 45.6255 42.9205 51.2635 42.9205C56.9035 42.9205 61.4743 39.0549 61.4743 34.284C61.4743 29.5137 56.9035 25.6482 51.2635 25.6482Z" fill="#201F1E"/>
<path d="M51.2635 41.0761C46.8259 41.0761 43.2267 38.0337 43.2267 34.2798C43.2267 30.5269 46.8259 27.4836 51.2635 27.4836C55.7001 27.4836 59.2994 30.5269 59.2994 34.2798C59.2994 38.0337 55.7001 41.0761 51.2635 41.0761ZM51.2635 26.9454C46.4709 26.9454 42.5881 30.2316 42.5881 34.2842C42.5881 38.3375 46.4709 41.6237 51.2635 41.6237C56.0551 41.6237 59.9399 38.3375 59.9399 34.2842C59.9399 30.2316 56.0551 26.9454 51.2635 26.9454Z" fill="#100F0D"/>
<path d="M53.6208 34.2844C53.6208 35.3865 52.5646 36.2802 51.2643 36.2802C49.96 36.2802 48.9048 35.3865 48.9048 34.2844C48.9048 33.1822 49.96 32.2892 51.2643 32.2892C52.5646 32.2892 53.6208 33.1822 53.6208 34.2844Z" fill="#A4A49B"/>
<path d="M52.358 34.2843C52.358 34.796 51.8677 35.2104 51.2645 35.2104C50.6592 35.2104 50.1689 34.796 50.1689 34.2843C50.1689 33.7735 50.6592 33.3587 51.2645 33.3587C51.8677 33.3587 52.358 33.7735 52.358 34.2843Z" fill="#454543"/>
<path d="M52.0644 34.2841C52.0644 34.6462 51.7144 34.94 51.2897 34.94H34.7308C34.302 34.94 33.9561 34.6462 33.9561 34.2841C33.9561 33.9226 34.302 33.6292 34.7308 33.6292H51.2897C51.7144 33.6292 52.0644 33.9226 52.0644 34.2841Z" fill="#172219"/>
<path d="M16.575 16.6392L14.964 21.2043C14.964 21.2043 13.811 23.9451 17.1187 27.9241C20.4234 31.9036 27.0359 38.7914 27.0359 38.7914C27.0359 38.7914 28.3463 40.2534 30.4617 39.4705C32.574 38.6928 36.5092 33.9715 36.6848 31.2082C36.6848 31.2082 28.8093 32.5562 21.172 24.2352C18.3293 21.1392 16.575 16.6392 16.575 16.6392Z" fill="#C1BFBD"/>
<path d="M29.2339 39.7018C27.8519 39.7018 27.0358 38.7917 27.0358 38.7917C27.0358 38.7917 27.8519 39.7018 29.2339 39.7018C29.6041 39.7018 30.0147 39.6364 30.4615 39.4708C30.4767 39.4657 30.4918 39.4597 30.507 39.4536C30.4918 39.4597 30.4767 39.4657 30.4615 39.4708C30.0147 39.6364 29.6041 39.7018 29.2339 39.7018ZM30.5201 39.4486C30.5312 39.4443 30.5423 39.4399 30.5534 39.4349C30.5423 39.4399 30.5312 39.4443 30.5201 39.4486ZM30.5685 39.4288C30.5806 39.4238 30.5937 39.4184 30.6058 39.4134C30.5937 39.4184 30.5816 39.4238 30.5685 39.4288ZM30.6149 39.4091C30.631 39.4024 30.6462 39.3953 30.6623 39.3876C30.6462 39.3953 30.631 39.4024 30.6149 39.4091ZM30.6744 39.3825C30.6865 39.3765 30.6986 39.3705 30.7117 39.3644C30.6986 39.3705 30.6865 39.3765 30.6744 39.3825ZM30.7259 39.3584C30.7369 39.3524 30.749 39.3473 30.7601 39.3413C30.749 39.3473 30.7369 39.3524 30.7259 39.3584ZM30.7763 39.3336C30.7884 39.3276 30.8005 39.3206 30.8136 39.3145C30.8005 39.3206 30.7884 39.3276 30.7763 39.3336ZM30.8257 39.3078C30.8408 39.3 30.856 39.2923 30.8711 39.2836C30.856 39.2923 30.8408 39.3 30.8257 39.3078ZM30.8973 39.2699C30.9044 39.2655 30.9125 39.2615 30.9195 39.2571C30.9125 39.2615 30.9044 39.2655 30.8973 39.2699ZM30.9457 39.2434C30.9528 39.239 30.9609 39.2347 30.9689 39.2297C30.9609 39.2347 30.9528 39.239 30.9457 39.2434ZM30.9972 39.2142C31.0002 39.2115 31.0042 39.2092 31.0083 39.2072C31.0042 39.2092 31.0002 39.2115 30.9972 39.2142ZM31.1233 39.1387C31.1273 39.1361 31.1314 39.1327 31.1364 39.1301C31.1314 39.1327 31.1273 39.1361 31.1233 39.1387ZM35.8978 33.6295C35.9533 33.5212 36.0067 33.4129 36.0582 33.3056C36.0582 33.3056 36.0582 33.3056 36.0592 33.3056C36.0078 33.4129 35.9543 33.5212 35.8978 33.6295ZM18.3866 20.3318C18.1707 19.9555 17.972 19.5907 17.7914 19.2474C17.7914 19.2467 17.7914 19.2467 17.7914 19.2467C17.972 19.5907 18.1707 19.9549 18.3876 20.3308L18.3866 20.3318Z" fill="#C1BFBD"/>
<path d="M35.575 34.2165C35.5791 34.2095 35.5831 34.2027 35.5871 34.1957C35.5831 34.2027 35.5791 34.2095 35.575 34.2165ZM35.5952 34.183C35.7022 33.9976 35.803 33.8127 35.8979 33.6294C35.804 33.8127 35.7022 33.9976 35.5952 34.183Z" fill="#161C16"/>
<path d="M29.2338 39.7018C27.8518 39.7018 27.0357 38.7917 27.0357 38.7917C27.0357 38.7917 27.761 39.5989 29.0028 39.6924C28.9352 37.6131 27.1094 35.7289 25.6275 34.1932C23.7724 32.2705 21.9707 30.2833 20.3496 28.2154C19.5032 27.1327 18.7023 26.0134 18.1192 24.8109C17.631 23.7936 17.4232 22.8212 17.515 21.723C17.5826 20.8991 17.7581 20.0743 17.7914 19.2474C17.972 19.5907 18.1707 19.9555 18.3865 20.3318L18.3714 20.3864C18.3159 21.8457 18.4683 23.2856 18.9283 24.6966C19.4276 26.228 20.3789 27.5673 21.4421 28.8566C23.7118 31.6223 26.4476 34.0859 28.8616 36.7547C28.8989 36.7959 28.9594 36.8167 29.0159 36.8167C29.0966 36.8167 29.1713 36.7744 29.1632 36.6852C29.0432 35.0268 30.2355 33.7348 32.0826 33.2432C32.6707 33.0876 33.275 33.0309 33.8863 33.0309C34.5662 33.0309 35.2562 33.1013 35.9451 33.1829L35.8998 33.3076C35.8998 33.3076 35.9563 33.3076 36.0581 33.3056C36.0067 33.4129 35.9532 33.5212 35.8978 33.6295C35.8029 33.8129 35.7021 33.9977 35.5951 34.1831C35.5921 34.1871 35.5901 34.1915 35.5871 34.1958C35.583 34.2029 35.579 34.2096 35.5749 34.2167C34.4078 36.2148 32.5527 38.2512 31.1364 39.1301C31.1313 39.1327 31.1273 39.1361 31.1233 39.1387C31.0839 39.1619 31.0466 39.185 31.0082 39.2072C31.0042 39.2092 31.0002 39.2115 30.9972 39.2142C30.9871 39.2193 30.978 39.2246 30.9689 39.2297C30.9608 39.2347 30.9528 39.239 30.9457 39.2434C30.9366 39.2478 30.9286 39.2528 30.9195 39.2571C30.9124 39.2615 30.9043 39.2655 30.8973 39.2699C30.8882 39.2743 30.8791 39.2793 30.8711 39.2836C30.8559 39.2923 30.8408 39.3 30.8257 39.3078C30.8216 39.3104 30.8176 39.3121 30.8136 39.3145C30.8005 39.3206 30.7884 39.3276 30.7762 39.3336C30.7702 39.3359 30.7651 39.3387 30.7601 39.3413C30.749 39.3473 30.7369 39.3524 30.7258 39.3584C30.7208 39.3601 30.7157 39.3628 30.7117 39.3644C30.6986 39.3705 30.6864 39.3765 30.6743 39.3825C30.6703 39.3843 30.6663 39.3859 30.6623 39.3876C30.6461 39.3953 30.631 39.4024 30.6148 39.4091C30.6118 39.4107 30.6088 39.4117 30.6058 39.4134C30.5937 39.4184 30.5805 39.4238 30.5684 39.4288C30.5634 39.4316 30.5584 39.4332 30.5533 39.4349C30.5422 39.4399 30.5311 39.4443 30.52 39.4486C30.516 39.4503 30.5109 39.452 30.5069 39.4536C30.4918 39.4597 30.4766 39.4657 30.4615 39.4708C30.0146 39.6364 29.6041 39.7018 29.2338 39.7018Z" fill="#8E8E8E"/>
<path d="M36.6848 31.1664C36.6848 31.1664 39.1785 30.8978 39.2068 29.1834C39.2229 28.1327 39.7172 27.0098 39.2915 25.9797C38.8527 24.9242 37.4888 24.5847 36.4669 24.0526C35.9151 23.7643 35.4844 23.4286 35.0829 22.9967C35.0305 22.9393 33.9632 21.4707 34.3576 21.4707H44.3565C44.3565 21.4707 43.6494 24.4889 45.6205 23.7934C45.6205 23.7934 53.4435 20.8506 59.7483 24.9309C59.7483 24.9309 64.0648 27.9517 64.1626 33.285C64.1626 33.285 63.9599 34.5418 65.4125 34.8566C65.4125 34.8566 66.626 35.0403 65.5648 35.3847C64.5066 35.7288 61.5197 36.1513 60.9992 34.9401C60.4786 33.7252 60.7893 27.4615 52.582 26.2906C52.582 26.2906 44.8236 25.1944 42.5831 32.2901C42.5831 32.2901 42.5175 32.8514 42.4096 33.1177C42.3702 33.225 35.9 33.3074 35.9 33.3074L36.6848 31.1664Z" fill="#DF2025"/>
<path d="M39.2904 25.9806C39.7181 27.0096 39.2238 28.1317 39.2056 29.1825C39.1956 29.8863 38.7678 30.3465 38.2695 30.6442C38.6084 30.5527 38.9383 30.4289 39.244 30.3035C39.8805 30.0416 40.4857 29.7421 41.0063 29.3334C42.1341 28.4512 42.9875 27.3239 43.8994 26.287C44.7205 25.3549 45.5578 24.2939 46.7139 23.6294C46.9479 23.4955 47.188 23.3795 47.4362 23.2772C46.3063 23.5348 45.6204 23.7943 45.6204 23.7943C43.6482 24.4878 44.3564 21.4705 44.3564 21.4705H34.3585C33.9631 21.4705 35.0293 22.9392 35.0838 22.9965C35.4833 23.4275 35.915 23.7641 36.4678 24.0518C37.4897 24.584 38.8516 24.924 39.2904 25.9806Z" fill="#9F1B21"/>
<path d="M33.7111 20.0821C33.7111 20.0821 31.6391 20.0821 32.1717 21.4969C32.7054 22.9122 34.1579 23.0997 35.0779 23.1939H46.2692C46.2692 23.1939 47.9216 23.3347 48.1839 22.1098C48.4472 20.8822 48.1839 20.3165 48.1839 20.3165C48.1839 20.3165 48.2887 19.7871 46.9814 19.7398L33.7111 20.0821Z" fill="#4D3320"/>
<path d="M35.2432 21.9933L35.2634 21.9862C35.3844 21.9349 35.3976 21.8679 35.3976 21.7656C35.3976 21.6335 35.3976 21.5057 35.3976 21.3787C35.3976 21.104 35.4026 20.8307 35.3976 20.5577L35.4006 20.4129C35.3582 20.1913 34.9829 20.2694 34.8064 20.2764C34.5492 20.2858 34.2889 20.2942 34.0286 20.3013L33.8561 20.3079C33.8561 20.3079 32.0717 20.3364 32.5498 21.108C33.0229 21.8789 34.2788 21.9625 35.0717 22.0026L35.2432 21.9933Z" fill="#744A2E"/>
<path d="M38.8364 20.1538L38.7345 20.14C38.4318 20.1467 38.1272 20.1692 37.8226 20.1776C37.2688 20.194 36.7089 20.1914 36.1571 20.2276C36.0572 20.2343 35.9654 20.243 35.8655 20.2343L35.7526 20.2473C35.6134 20.3101 35.6003 20.3861 35.6053 20.5005C35.6104 20.6206 35.6023 20.7416 35.6023 20.862C35.6023 21.1349 35.6053 21.4095 35.6023 21.6825C35.6023 21.8009 35.5791 21.8482 35.6739 21.9487L35.9099 21.9957L36.1652 21.9819C36.4123 21.9803 36.6615 21.9735 36.9086 21.9709C37.4181 21.9665 37.9255 21.9528 38.4349 21.9461C38.5237 21.9461 38.6165 21.9461 38.7083 21.9417C38.9947 21.935 38.8949 21.4551 38.8949 21.3089C38.8949 21.0095 38.8949 20.7081 38.8949 20.406C38.8949 20.3013 38.9282 20.1914 38.8364 20.1538Z" fill="#744A2E"/>
<path d="M46.3135 20.2343C46.3135 20.2343 46.3972 19.9392 45.2704 19.9322C45.0394 19.9392 44.8105 19.9459 44.5825 19.9547C44.183 19.9684 43.7815 19.9684 43.3841 19.9949C43.2691 20.0036 43.0058 19.9922 42.919 20.0841C42.8303 20.1777 42.8534 20.2518 42.8484 20.3591C42.8454 20.4912 42.8484 20.625 42.8484 20.7571C42.8403 21.0277 42.8454 21.3007 42.8454 21.5736L42.8585 21.7855C42.919 21.8747 43.0481 21.8731 43.151 21.868C43.2902 21.8636 43.4264 21.8663 43.5656 21.8636C43.8733 21.8613 44.183 21.8553 44.4927 21.8482L44.6975 21.8455C44.7035 21.8455 46.1249 21.8998 46.3347 21.2198C46.5445 20.5401 46.3135 20.2343 46.3135 20.2343Z" fill="#744A2E"/>
<path d="M42.578 20.0326H42.2733C42.0211 20.0393 41.7689 20.0464 41.5167 20.0548C41.206 20.0662 40.8963 20.0796 40.5836 20.0866C40.3052 20.0933 40.0268 20.1091 39.7484 20.1158C39.704 20.1158 39.6535 20.1158 39.6041 20.1132C39.48 20.1107 39.3489 20.1091 39.247 20.1423L39.0997 20.2386C39.0997 20.4327 39.0997 20.6319 39.0997 20.8284C39.0997 21.1234 39.1018 21.4205 39.1018 21.7143L39.0997 21.8497C39.1149 21.9399 39.36 21.9262 39.4669 21.9235C39.6011 21.9195 39.7352 21.9175 39.8694 21.9151C40.1317 21.9125 40.397 21.9151 40.6623 21.9108C41.1798 21.9014 41.7003 21.8953 42.2178 21.886C42.2471 21.8842 42.2753 21.886 42.3046 21.886C42.4882 21.886 42.6435 21.8883 42.6435 21.6714C42.6405 21.5218 42.6405 21.3743 42.6435 21.224C42.6455 20.9313 42.6304 20.6358 42.6435 20.3431L42.6405 20.1758L42.6516 20.1158L42.578 20.0326Z" fill="#744A2E"/>
<path d="M52.6131 34.2127C52.6131 34.4162 52.2792 34.5818 51.8677 34.5835C51.449 34.5862 51.1131 34.4233 51.1131 34.2197L51.0425 23.7993C51.0425 23.5958 51.3734 23.4285 51.788 23.4285C52.2036 23.4257 52.5395 23.5874 52.5425 23.7906L52.6131 34.2127Z" fill="#C4C3BF"/>
<path d="M52.9098 30.4768C52.9129 30.6408 52.4378 30.7722 51.8517 30.775C51.2636 30.779 50.7874 30.6495 50.7854 30.4879L50.7299 22.17C50.7269 22.0087 51.2031 21.8745 51.7881 21.8729C52.3773 21.8679 52.8524 21.9976 52.8524 22.1606L52.9098 30.4768Z" fill="#397FCA"/>
<path d="M51.4965 30.5216C51.1706 30.484 50.9396 30.386 50.9396 30.2694L50.8922 22.4585C50.8922 22.3357 51.1444 22.2301 51.4965 22.1949V30.5216Z" fill="#60B8E9"/>
<path d="M17.5777 34.4034H11.8933C10.8896 34.2127 11.8036 33.428 11.8036 33.428C11.8036 33.428 14.0733 31.1096 14.7703 30.3635C16.0363 29.0021 16.5195 29.7593 16.5195 29.7593C16.5195 29.7593 18.4322 31.3534 18.8922 33.9913C18.9971 34.5791 17.5777 34.4034 17.5777 34.4034ZM12.5712 23.8841L10.0201 34.4034L10.1431 34.5775L10.1593 34.5888L20.3498 34.776C20.3498 34.776 21.059 33.9605 21.059 32.6283C21.059 31.0408 18.6268 25.6845 12.5712 23.8841Z" fill="#DF2025"/>
<path d="M14.4051 14.4376L12.1686 22.1949C12.1686 22.1949 11.6592 23.511 12.1686 23.7487L15.2141 24.7702L18.0881 17.2429C18.0881 17.2429 18.9627 14.8219 20.0663 14.1241C20.0663 14.1241 21.19 11.9754 21.0276 11.9754C19.3067 11.9754 16.5537 9.7653 16.5537 9.7653C16.5537 9.7653 14.7904 9.89475 14.7702 10.2726C14.7511 10.6475 14.4051 14.4376 14.4051 14.4376Z" fill="#253C7A"/>
<path d="M18.2848 16.2463C17.6594 16.132 17.0269 16.0247 16.3984 15.9107C15.7387 15.7896 15.0799 15.6334 14.4151 15.5284C14.3072 15.5123 14.2729 15.5123 14.2336 15.5123L14.0732 15.5928L12.1686 22.1949C12.1686 22.1949 11.6592 23.511 12.1686 23.7487L15.2141 24.7702L18.0881 17.2429C18.0881 17.2429 18.2192 16.8737 18.4472 16.3845C18.4764 16.3218 18.4472 16.2815 18.2848 16.2463Z" fill="#DF2025"/>
<path d="M18.0853 12.4631C18.0621 13.9523 15.5976 15.4049 12.1245 15.1611C11.4597 15.1145 10.9129 13.9523 10.9129 12.4631C10.9129 10.9719 11.4677 9.84998 12.1245 9.76517C15.0509 9.37614 18.1014 11.2157 18.0853 12.4631Z" fill="#253C7A"/>
<path d="M12.1638 9.75869L12.1245 9.76573C11.4677 9.85054 10.9129 10.9725 10.9129 12.4636C10.9129 13.9528 11.4597 15.115 12.1245 15.1616L12.1638 15.164V9.75869Z" fill="#818484"/>
<path d="M11.7068 9.9688C11.2499 10.3699 10.9129 11.3037 10.9129 12.4635C10.9129 13.6248 11.2448 14.5861 11.7068 14.9751V9.9688Z" fill="#FEFDE5"/>
<path d="M20.134 10.4645C18.6733 10.0662 18.0933 10.0326 17.5364 9.85861C16.9685 9.7107 16.446 9.54065 15.9103 9.55877C15.3272 9.57962 14.499 9.55713 14.2448 9.83612C14.2842 11.2465 14.2105 14.6741 14.2448 15.1884C17.1238 15.8544 18.2849 15.6023 18.9366 15.4493C19.1182 15.2347 20.5527 12.8851 20.7494 12.7581C20.7494 12.7581 21.7712 10.9118 20.134 10.4645Z" fill="#DF2025"/>
<path d="M16.1854 13.5722C16.1854 13.8401 15.9282 14.0574 15.6104 14.0574H14.0257C13.7079 14.0574 13.4507 13.8401 13.4507 13.5722C13.4507 13.3019 13.7079 13.0847 14.0257 13.0847H15.6104C15.9282 13.0847 16.1854 13.3019 16.1854 13.5722Z" fill="#9C1C20"/>
<path d="M22.4904 2.06172C22.7295 3.25578 22.6145 4.26707 22.2282 4.3221C21.8448 4.37772 21.3374 3.45492 21.0973 2.26353C20.8572 1.06947 20.9753 0.0564571 21.3596 0.00246289C21.745 -0.0535058 22.2504 0.869293 22.4904 2.06172Z" fill="#818484"/>
<path d="M22.4903 2.06179C22.2502 0.869361 21.7448 -0.0534381 21.3595 0.00253061L21.2828 0.0280256C21.6419 0.180909 22.0565 1.01958 22.2673 2.06513C22.4903 3.17335 22.4035 4.12697 22.0827 4.29968L22.228 4.32217C22.6143 4.26714 22.7294 3.25584 22.4903 2.06179Z" fill="#5A5C5D"/>
<path d="M20.7703 11.1465C20.846 11.5603 20.6462 11.9301 20.3244 11.972C20.0026 12.0133 19.6818 11.7121 19.6052 11.2967C19.5305 10.8829 19.7313 10.5127 20.051 10.4715C20.3738 10.4296 20.6947 10.7317 20.7703 11.1465Z" fill="#172219"/>
<path d="M22.8576 10.8622C22.9303 11.2143 22.8657 11.5191 22.7144 11.5412L20.483 11.8648C20.2823 11.895 20.0502 11.719 19.9463 11.5973C19.8 11.4262 19.7133 11.1851 19.7859 10.9799C19.8404 10.8253 20.0189 10.6177 20.2237 10.5892L22.4541 10.264C22.6055 10.2425 22.788 10.5095 22.8576 10.8622Z" fill="#2C2A2A"/>
<path d="M23.1179 10.845C23.2077 11.2572 23.019 11.6324 22.6983 11.6803C22.3785 11.7293 22.0476 11.4338 21.9608 11.0217C21.8731 10.609 22.0597 10.2354 22.3815 10.1865C22.7003 10.1369 23.0322 10.4322 23.1179 10.845Z" fill="#172219"/>
<path d="M13.9602 12.2845C13.9602 12.2845 11.9427 12.6555 12.3129 13.7801C12.5076 14.3656 14.6674 14.9088 15.3816 14.5741C15.6842 14.4306 15.7336 12.9686 15.4552 12.4546C15.3109 12.1843 14.5312 12.1662 13.9602 12.2845Z" fill="#EA402C"/>
<path d="M13.9602 12.2845C13.9602 12.2845 11.9427 12.6555 12.3129 13.7801C12.5076 14.3656 14.6674 14.9088 15.3816 14.5741C15.6842 14.4306 15.7336 12.9686 15.4552 12.4546C15.3109 12.1843 14.5312 12.1662 13.9602 12.2845Z" fill="#EA402C"/>
<path d="M15.4551 12.4545C15.3502 12.2596 14.9245 12.1969 14.4806 12.2194V14.6632C14.8458 14.6941 15.1747 14.6699 15.3815 14.574C15.6841 14.4305 15.7335 12.9685 15.4551 12.4545Z" fill="#A4A49B"/>
<path d="M12.2696 13.4717H12.2686C12.313 12.6432 13.7566 12.3257 13.9412 12.2877C13.7566 12.3257 12.315 12.6432 12.2696 13.4717ZM13.9472 12.2871C13.9563 12.2854 13.9603 12.2844 13.9603 12.2844C13.9603 12.2844 13.9563 12.2854 13.9472 12.2871Z" fill="#EA5E93"/>
<path d="M15.5089 12.5723C15.5089 12.5712 15.5089 12.5712 15.5089 12.5712C15.5089 12.5712 15.5089 12.5712 15.5089 12.5723ZM15.5006 12.5497C15.4996 12.547 15.4986 12.5447 15.4975 12.5419C15.4986 12.5447 15.4996 12.547 15.5006 12.5497ZM15.4903 12.5248C15.4883 12.5214 15.4872 12.5188 15.4852 12.5154C15.4872 12.5188 15.4883 12.5214 15.4903 12.5248ZM15.479 12.5006C15.4769 12.4962 15.4749 12.4921 15.4728 12.4877C15.4749 12.4921 15.4769 12.4962 15.479 12.5006ZM15.4677 12.4767C15.4636 12.469 15.4594 12.4609 15.4553 12.4541C15.4594 12.4609 15.4636 12.469 15.4677 12.4767Z" fill="#F2503F"/>
<path d="M15.6389 13.4717H15.6379C15.637 13.3935 15.6342 13.3152 15.6296 13.2386C15.6342 13.3152 15.637 13.3935 15.6389 13.4717Z" fill="#F14F40"/>
<path d="M14.4809 13.4717H12.2697C12.3151 12.6432 13.7566 12.3257 13.9412 12.2877C13.9432 12.2877 13.9452 12.2871 13.9473 12.2871C13.9563 12.2854 13.9604 12.2844 13.9604 12.2844C14.1742 12.2398 14.4173 12.215 14.6453 12.215C14.7765 12.215 14.9025 12.2227 15.0155 12.2408C14.9036 12.2233 14.7785 12.215 14.6484 12.215C14.5939 12.215 14.5374 12.2166 14.4809 12.2194V13.4717ZM15.4554 12.4544C15.4332 12.4115 15.3948 12.3753 15.3444 12.3454C15.3948 12.3753 15.4332 12.4115 15.4554 12.4544Z" fill="#F5784D"/>
<path d="M15.6387 13.4717H14.4806V12.2194C14.5371 12.2166 14.5936 12.215 14.6481 12.215C14.7782 12.215 14.9033 12.2233 15.0153 12.2408C15.1484 12.2623 15.2624 12.2965 15.3441 12.3454C15.3946 12.3753 15.4329 12.4115 15.4551 12.4544C15.4591 12.4611 15.4632 12.4692 15.4672 12.4769C15.4692 12.4809 15.4702 12.4846 15.4722 12.4879C15.4742 12.4923 15.4763 12.4963 15.4783 12.5007C15.4803 12.506 15.4823 12.51 15.4843 12.5155C15.4864 12.5188 15.4874 12.5215 15.4894 12.5248C15.4914 12.5308 15.4934 12.5369 15.4964 12.5419C15.4975 12.5446 15.4985 12.547 15.4995 12.5496C15.5015 12.5567 15.5045 12.5634 15.5075 12.5711C15.5075 12.5711 15.5075 12.5711 15.5075 12.5721C15.5731 12.7489 15.6125 12.9876 15.6296 13.239C15.6346 13.3155 15.6377 13.3936 15.6387 13.4717Z" fill="#F7BAAD"/>
<path d="M25.6275 34.1929C23.7724 32.2702 21.9707 30.283 20.3497 28.2151C19.5033 27.1324 18.7023 26.0131 18.1193 24.8106C17.631 23.7933 17.4232 22.8209 17.515 21.7227C17.5988 20.7013 17.849 19.6772 17.7884 18.6515C17.7279 17.6787 16.8503 16.6866 16.0907 16.0317L14.4988 21.5081C14.4988 21.5081 13.8108 23.9452 17.1186 27.9241C20.4233 31.9036 27.0358 38.7914 27.0358 38.7914C27.0358 38.7914 27.7611 39.5986 29.0029 39.6921C28.9353 37.6128 27.1094 35.7287 25.6275 34.1929Z" fill="#838584"/>
<path d="M25.6277 34.1941C23.7726 32.2713 21.9709 30.2832 20.3508 28.2153C19.5045 27.1336 18.7015 26.0133 18.1194 24.8099C17.6302 23.7935 17.4234 22.8217 17.5152 21.7229C17.5999 20.7022 17.8491 19.6774 17.7886 18.6524C17.728 17.6789 16.8514 16.6868 16.0908 16.0326L15.9798 16.4145C16.3067 16.6669 17.7694 17.7091 17.5132 19.601C17.2065 21.8637 16.5377 22.9026 18.2092 25.8546C19.8818 28.8102 27.3123 36.541 27.3123 36.541C27.3123 36.541 28.428 38.1025 28.5673 39.6279C28.7055 39.657 28.8507 39.6819 29.005 39.6913C28.9354 37.6123 27.1096 35.7298 25.6277 34.1941Z" fill="#D9D8D6"/>
<path d="M12.8717 23.59C12.7083 23.59 12.7466 23.373 12.7466 23.373L15.0587 16.2703C15.083 16.1932 15.1435 16.0627 15.2282 16.0627C15.2514 16.0627 15.2766 16.0728 15.3029 16.0963C15.4209 16.2076 15.3029 16.4893 15.3029 16.4893L12.9968 23.5608C12.9454 23.5816 12.905 23.59 12.8717 23.59Z" fill="#EC5E6C"/>
<path d="M15.8134 28.1057C15.8134 28.6526 15.2878 29.0966 14.6432 29.0966C13.9946 29.0966 13.472 28.6526 13.472 28.1057C13.472 27.5582 13.9946 27.1152 14.6432 27.1152C15.2878 27.1152 15.8134 27.5582 15.8134 28.1057Z" fill="#201F1E"/>
<path d="M13.1946 30.3141C13.1946 30.4599 13.0553 30.5776 12.8828 30.5776C12.7114 30.5776 12.5701 30.4599 12.5701 30.3141C12.5701 30.1699 12.7114 30.0512 12.8828 30.0512C13.0553 30.0512 13.1946 30.1699 13.1946 30.3141Z" fill="#201F1E"/>
<path d="M55.1653 23.2303C54.9807 23.2303 54.8304 23.1033 54.8304 22.946V21.9098C54.8304 21.7546 54.9807 21.6275 55.1653 21.6275C55.3499 21.6275 55.4992 21.7546 55.4992 21.9098V22.946C55.4992 23.1033 55.3499 23.2303 55.1653 23.2303Z" fill="#C4C3BF"/>
<path d="M50.0509 22.1932C49.1108 22.1932 48.7355 21.6594 48.669 21.3633L48.6629 21.3107V20.3668C48.6629 20.2095 48.8132 20.0834 48.9978 20.0834C49.1824 20.0834 49.3317 20.2095 49.3317 20.3668V21.2758C49.366 21.371 49.5243 21.6627 50.1629 21.6242L50.1861 21.6232H60.2728C60.4574 21.6232 60.6077 21.7503 60.6077 21.9065C60.6077 22.0618 60.4574 22.1899 60.2728 22.1899H50.1982L50.0509 22.1932Z" fill="#C4C3BF"/>
<path d="M59.4383 24.7702C59.2547 24.7702 59.1044 24.6423 59.1044 24.4888V21.9109C59.1044 21.7539 59.2547 21.6268 59.4383 21.6268C59.6219 21.6268 59.7723 21.7539 59.7723 21.9109V24.4888C59.7723 24.6423 59.6219 24.7702 59.4383 24.7702Z" fill="#C4C3BF"/>
<path d="M54.9494 25.8226H54.4551C54.1344 25.8226 53.8771 25.6037 53.8771 25.3334C53.8771 25.0672 54.1344 24.8482 54.4551 24.8482H54.9656C54.9525 24.9394 54.9423 25.0347 54.9353 25.1325H54.9363C54.9303 25.2261 54.9272 25.322 54.9272 25.4166C54.9282 25.5564 54.9353 25.6945 54.9494 25.8226Z" fill="#A81C22"/>
<path d="M56.6069 24.1729C56.6069 24.1729 58.6244 24.5444 58.2542 25.6691C58.0595 26.2569 55.8997 26.7978 55.1855 26.4621C54.8809 26.3213 54.8335 24.8596 55.1119 24.3425C55.2561 24.0723 56.0339 24.0542 56.6069 24.1729Z" fill="#EA402C"/>
<path d="M55.1119 24.3427C55.2138 24.1489 55.6425 24.0879 56.0864 24.1087V26.5542C55.7212 26.5834 55.3903 26.5609 55.1855 26.4623C54.8809 26.3215 54.8335 24.8599 55.1119 24.3427Z" fill="#A4A49B"/>
<path d="M54.9667 24.8483H54.9657C54.997 24.6457 55.0444 24.4664 55.112 24.3426C55.0444 24.4673 54.997 24.6457 54.9667 24.8483ZM55.2946 24.1984C55.4035 24.1515 55.5498 24.124 55.7122 24.1109C55.5508 24.124 55.4055 24.1515 55.2966 24.1978C55.2956 24.1978 55.2946 24.1978 55.2946 24.1984ZM56.611 24.1736C56.608 24.1736 56.607 24.173 56.607 24.173C56.607 24.173 56.608 24.1736 56.611 24.1736ZM56.5656 24.1653C56.496 24.1515 56.4234 24.1401 56.3497 24.1307C56.4234 24.1401 56.496 24.1515 56.5656 24.1653ZM56.1409 24.1109C56.1107 24.1092 56.0804 24.1076 56.0501 24.1059C56.0804 24.1076 56.1107 24.1092 56.1409 24.1109ZM55.9634 24.1042C55.9492 24.1032 55.9351 24.1032 55.921 24.1032C55.9351 24.1032 55.9492 24.1032 55.9634 24.1042Z" fill="#F2503F"/>
<path d="M54.9364 25.1325H54.9353C54.9424 25.0345 54.9526 24.939 54.9658 24.8477H54.9667C54.9526 24.939 54.9424 25.0345 54.9364 25.1325Z" fill="#F04231"/>
<path d="M58.246 25.1325H56.0862V24.1085C56.0327 24.1058 55.9793 24.1048 55.9278 24.1048C55.6817 24.1048 55.4527 24.1323 55.2963 24.1977C55.4053 24.1515 55.5505 24.1239 55.7119 24.1109C55.7795 24.1058 55.8491 24.1031 55.9207 24.1031C55.9349 24.1031 55.949 24.1031 55.9631 24.1042C55.9924 24.1042 56.0206 24.1048 56.0499 24.1058C56.0802 24.1075 56.1104 24.1091 56.1407 24.1109C56.2103 24.1152 56.2799 24.1223 56.3495 24.1306C56.4231 24.14 56.4958 24.1515 56.5654 24.1652C56.5795 24.1675 56.5926 24.1702 56.6067 24.1729C56.6067 24.1729 56.6077 24.1735 56.6108 24.1735C56.6955 24.19 57.9716 24.4465 58.246 25.1325Z" fill="#F5784D"/>
<path d="M56.0863 25.1325H54.9364C54.9575 24.8184 55.015 24.523 55.1119 24.3425C55.1441 24.2825 55.2077 24.2346 55.2944 24.1983C55.2944 24.1977 55.2955 24.1977 55.2965 24.1977C55.4528 24.1323 55.6818 24.1048 55.928 24.1048C55.9794 24.1048 56.0329 24.1058 56.0863 24.1085V25.1325Z" fill="#F7BAAD"/>
<path d="M50.5969 32.9723L33.9876 33.3073C31.9014 33.3073 30.2097 34.7364 30.2097 36.5005C30.2097 38.2653 31.9014 39.6944 33.9876 39.6944C34.5807 39.6944 34.9297 39.7136 35.765 39.5737L49.5316 38.2995C49.5316 38.2995 53.6212 37.8978 53.0744 34.1355C53.0744 34.1355 52.7214 32.6376 50.5969 32.9723Z" fill="#626565"/>
<path d="M43.1893 33.428L37.0711 33.5974C36.1219 33.6231 36.7443 34.4893 36.7443 34.4893C36.7443 34.4893 37.5049 35.6582 38.322 36.8935C38.326 36.8995 38.56 37.2533 38.9252 37.2231L42.3338 37.0293C42.3338 37.0293 42.8584 37.0293 43.0521 36.5313C43.5 35.389 43.9115 34.3028 43.963 34.0403C44.084 33.434 43.1893 33.428 43.1893 33.428Z" fill="#4B4C4C"/>
<path d="M52.6203 34.8282C52.6435 35.0787 52.2541 35.3081 51.7518 35.3417L38.1466 36.2293C37.6432 36.2627 37.2165 36.085 37.1943 35.8352C37.1701 35.5854 37.5594 35.3561 38.0628 35.3225L51.6691 34.4349C52.1714 34.4025 52.5971 34.5784 52.6203 34.8282Z" fill="#4B4C4C"/>
<path d="M36.7693 36.2325C36.7693 37.5465 35.5094 38.6112 33.9549 38.6112C32.4034 38.6112 31.1434 37.5465 31.1434 36.2325C31.1434 34.9183 32.4034 33.8537 33.9549 33.8537C35.5094 33.8537 36.7693 34.9183 36.7693 36.2325Z" fill="#7E7F80"/>
<path d="M36.5354 36.4306C36.5354 37.6361 35.3793 38.6112 33.9549 38.6112C32.5326 38.6112 31.3765 37.6361 31.3765 36.4306C31.3765 35.2255 32.5326 34.2494 33.9549 34.2494C35.3793 34.2494 36.5354 35.2255 36.5354 36.4306Z" fill="#BBBCBD"/>
<path d="M40.4544 29.077C40.4544 29.3001 40.2406 29.4814 39.9752 29.4814C39.7099 29.4814 39.4961 29.3001 39.4961 29.077C39.4961 28.8504 39.7099 28.67 39.9752 28.67C40.2406 28.67 40.4544 28.8504 40.4544 29.077Z" fill="#2F49A5"/>
<path d="M64.9533 35.0437C64.5195 35.0437 63.7458 34.9237 63.6126 34.0857C63.3977 32.7193 63.2717 28.4829 59.1044 24.8484C59.1044 24.8484 62.3496 27.1755 63.3523 30.357C63.3523 30.357 63.6045 31.0635 63.7992 32.7622C63.9939 34.4593 64.1332 34.9331 65.2468 35.0243C65.2468 35.0243 65.1278 35.0437 64.9533 35.0437Z" fill="#EC5E6C"/>
<path d="M14.2335 16.2634L12.4551 22.602C12.4551 22.602 12.3401 23.1941 11.9457 23.3102C11.9457 23.3102 11.8064 23.0731 11.9426 22.2482C12.0798 21.4233 13.4719 16.8513 13.4719 16.8513C13.4719 16.8513 13.5748 16.3329 14.2335 16.2634Z" fill="#EA402C"/>
<path d="M14.2335 16.2634L12.4551 22.602C12.4551 22.602 12.3401 23.1941 11.9457 23.3102C11.9457 23.3102 11.8064 23.0731 11.9426 22.2482C12.0798 21.4233 13.4719 16.8513 13.4719 16.8513C13.4719 16.8513 13.5748 16.3329 14.2335 16.2634Z" fill="#DC4020"/>
<path d="M12.6277 19.6909C12.6267 19.6909 12.6267 19.6909 12.6257 19.6909C12.8567 18.9002 13.0948 18.1011 13.2602 17.5532C13.0948 18.1011 12.8567 18.9002 12.6277 19.6909ZM13.2733 17.5086C13.2733 17.5079 13.2743 17.5069 13.2743 17.5062C13.2743 17.5069 13.2733 17.5079 13.2733 17.5086ZM13.4559 16.9034C13.4569 16.9016 13.4569 16.9 13.4579 16.8993C13.4569 16.9 13.4569 16.9016 13.4559 16.9034ZM13.468 16.8648C13.468 16.8631 13.469 16.8615 13.469 16.8604C13.469 16.8615 13.468 16.8631 13.468 16.8648Z" fill="#EA402C"/>
<path d="M13.2431 19.7912C13.2128 19.7862 13.1815 19.7818 13.1503 19.7768L14.0501 16.4846C13.6113 17.4118 13.2451 18.6324 12.9647 19.7483C12.8527 19.7306 12.7397 19.7114 12.6277 19.691C12.8567 18.9003 13.0948 18.1012 13.2602 17.5533C13.2642 17.5379 13.2693 17.5235 13.2733 17.5087C13.2733 17.508 13.2744 17.507 13.2744 17.5063C13.3621 17.2127 13.4277 16.998 13.4559 16.9035C13.4569 16.9017 13.4569 16.9001 13.4579 16.8994C13.462 16.884 13.466 16.8726 13.468 16.8649C13.468 16.8632 13.469 16.8616 13.469 16.8605C13.4711 16.8549 13.4721 16.8512 13.4721 16.8512C13.4721 16.8512 13.5749 16.3328 14.2337 16.2633L13.2431 19.7912Z" fill="#F57537"/>
<path d="M12.3421 22.7314C12.3421 22.7314 12.5641 21.3469 12.9646 19.7484C13.0271 19.7578 13.0886 19.7675 13.1502 19.7769L12.3421 22.7314Z" fill="#F57537"/>
<path d="M13.1504 19.7768C13.0889 19.7674 13.0273 19.7577 12.9648 19.7483C13.2452 18.6324 13.6114 17.4118 14.0502 16.4846L13.1504 19.7768Z" fill="#F8A254"/>
<path d="M21.3233 2.06948L18.4574 8.27257C18.4574 8.27257 17.6907 9.45126 18.1729 10.1809L18.755 11.222C18.755 11.222 18.878 11.3206 19.0021 11.222C19.0021 11.222 19.0444 11.1489 18.988 11.0665C18.9335 10.9826 18.3615 9.96863 18.3615 9.96863C18.3615 9.96863 18.2092 9.47435 18.5008 8.81509L21.3999 2.48495C21.3999 2.48495 21.5916 2.10905 21.3233 2.06948Z" fill="#C4C3BF"/>
<path d="M35.3986 20.546L35.4006 20.4129C35.3966 20.3921 35.3895 20.3744 35.3804 20.3579L35.6266 20.3508C35.6054 20.3921 35.6024 20.4411 35.6054 20.5004C35.6065 20.5114 35.6064 20.5236 35.6064 20.5356L35.3986 20.546ZM38.896 20.3707C38.898 20.3287 38.9031 20.2865 38.9 20.2506L39.0998 20.2435C39.0998 20.2824 39.0998 20.3217 39.0998 20.3605L38.896 20.3707ZM42.6406 20.1828V20.1758L42.6476 20.1346L42.8847 20.1278C42.8746 20.1422 42.8675 20.1577 42.8625 20.1725L42.6406 20.1828Z" fill="#C08C54"/>
<path d="M32.7888 21.0138C32.7888 21.0138 32.9261 20.4662 34.1134 20.3974L35.3803 20.3579C35.3894 20.3744 35.3965 20.3921 35.4005 20.4129L35.3985 20.546L34.1345 20.6094C34.1345 20.6094 33.4112 20.6319 32.7888 21.0138Z" fill="#CE9A60"/>
<path d="M35.6063 20.5358C35.6063 20.5238 35.6063 20.5117 35.6053 20.5006C35.6023 20.4413 35.6053 20.3923 35.6265 20.3511L38.8999 20.2508C38.903 20.2867 38.8979 20.3289 38.8959 20.3709L35.6063 20.5358Z" fill="#CE9A60"/>
<path d="M42.8624 20.1727C42.8674 20.1579 42.8744 20.1423 42.8845 20.1279L45.1079 20.0589L42.8624 20.1727Z" fill="#CE9A60"/>
<path d="M39.0997 20.3605C39.0997 20.3216 39.0997 20.2823 39.0997 20.2435L42.6476 20.1345L42.6405 20.1757V20.1828L39.0997 20.3605Z" fill="#CE9A60"/>
</svg>
