<svg width="73" height="42" viewBox="0 0 73 42" fill="none" xmlns="http://www.w3.org/2000/svg">
<path d="M40.2827 3.97892H39.6264L40.2827 17.9431H41.3735L40.2827 3.97892Z" fill="#100F0D"/>
<path d="M39.3139 34.8245H41.5133V17.4702H39.3139V34.8245Z" fill="#100F0D"/>
<path d="M70.5106 35.1085H40.7664V17.223H70.5106L70.7108 21.4693V27.0586L70.5106 35.1085Z" fill="#EE9312"/>
<path d="M68.077 21.4694H40.7664V18.6101H43.1153V18.993C43.1153 19.1637 43.2229 19.3031 43.3595 19.3031C43.4927 19.3031 43.6023 19.1637 43.6023 18.993V18.6101H51.6153V18.993C51.6153 19.1637 51.7262 19.3031 51.8594 19.3031C51.9946 19.3031 52.1035 19.1637 52.1035 18.993V18.6101H60.1204V18.993C60.1204 19.1637 60.2281 19.3031 60.3613 19.3031C60.4959 19.3031 60.6055 19.1637 60.6055 18.993V18.6101H68.6204V18.993C68.6204 19.1637 68.728 19.3031 68.8626 19.3031C68.9998 19.3031 69.1074 19.1637 69.1074 18.993V18.6101H70.5756L70.6524 20.233H68.3008H68.2922C67.6563 20.2967 67.4732 20.4932 67.4784 20.7016H67.4856C67.4915 20.9956 67.8683 21.3138 67.8683 21.3138C67.8683 21.3138 67.9464 21.372 68.077 21.4694Z" fill="#F3BA15"/>
<path d="M70.5953 18.8819L70.5467 18.4501H40.7664V18.8819H70.5953Z" fill="#4B5452"/>
<path d="M70.5105 35.1085L70.7094 27.1065H70.7107L70.5105 35.1085Z" fill="#F8D492"/>
<path d="M70.5106 35.1085L70.5736 32.5095H65.5666L64.5388 27.4107C64.5211 27.3073 64.5014 27.2066 64.4797 27.1065H70.7095L70.5106 35.1085ZM40.7664 35.1085V27.1065H50.871C50.724 27.6611 50.6183 28.2799 50.5704 28.9679L50.2193 32.5095H40.7664V35.1085ZM63.4545 32.5095H52.1941L52.4271 29.2436C52.5177 28.4004 52.7901 27.6804 53.1287 27.1065H62.455C62.7208 27.6459 62.942 28.3238 63.0824 29.1409L63.4545 32.5095Z" fill="#E87717"/>
<path d="M70.5106 35.1085H66.0903L65.5666 32.5095H70.5736L70.5106 35.1085ZM63.7414 35.1085H52.009L52.1941 32.5095H63.4545L63.7414 35.1085ZM49.9607 35.1085H40.7664V32.5095H50.2193L49.9607 35.1085Z" fill="#E15A1C"/>
<path d="M40.4968 17.1418L18.3212 18.7546C18.3212 18.7546 9.2522 20.3381 1.14998 24.9033C0.502193 25.5402 0.42213 26.1115 0.321057 26.8245C0.286929 27.0588 0.261313 27.2967 0.235717 27.5352C0.235717 28.6407 0.252806 29.7468 0.244274 30.8516C0.227209 32.9936 0.916323 33.0001 2.57221 35.2078C2.62209 35.275 2.71267 35.275 2.78224 35.3059L40.4968 35.111V17.1418Z" fill="#EE9312"/>
<path d="M40.4968 32.5095H20.531L19.5038 27.4107C19.492 27.3418 19.4796 27.2746 19.4658 27.2073H40.4968V32.5095ZM18.4196 32.5095H7.33576C7.33641 32.496 7.33705 32.4819 7.33771 32.4685H7.16184L7.39219 29.2437C7.47817 28.449 7.72495 27.7635 8.03604 27.2073H17.4686C17.7128 27.729 17.9156 28.3741 18.0475 29.141L18.4196 32.5095ZM5.18763 32.4685H0.48315C0.322352 32.082 0.245586 31.6249 0.244274 30.9506C0.244274 30.9177 0.244274 30.885 0.244274 30.8515C0.246243 30.6447 0.246901 30.4374 0.246901 30.2297C0.246901 29.3319 0.235717 28.4328 0.235717 27.5351C0.252781 27.3796 0.269851 27.2267 0.290196 27.0714L0.370922 27.0672L0.286928 27.1899L0.343362 27.2923L0.406366 27.2746L0.440495 27.2385C0.434589 27.335 0.430014 27.4324 0.427388 27.5292C0.439858 27.6519 0.458211 27.7635 0.484463 27.8567C0.484463 27.8583 0.485136 27.86 0.485136 27.861C0.494325 27.8921 0.503494 27.9213 0.514651 27.9492C0.526465 27.9794 0.55207 27.9945 0.58948 27.9945C0.766686 27.9945 1.21363 27.6677 1.75181 27.2073H5.80918C5.67529 27.7359 5.57944 28.3213 5.53416 28.968L5.18763 32.4685Z" fill="#E87717"/>
<path d="M7.14927 35.283C7.19784 34.6615 7.23852 34.128 7.2523 33.9121C7.28052 33.4441 7.31137 32.9773 7.33565 32.5094H18.4195L18.7162 35.1898L21.0494 35.2108L7.14927 35.283ZM21.0743 35.2108L20.5309 32.5094H40.4967V34.8243V35.1107L21.0743 35.2108Z" fill="#E15A1C"/>
<path d="M39.7977 4.01413C34.8372 3.84613 30.2155 4.26781 27.098 5.56561C23.4127 7.09442 16.5536 21.8845 16.5536 21.8845L40.4966 21.4996V17.4702L39.7977 4.01413Z" fill="#EE9312"/>
<path d="M39.6263 16.6495C39.5292 11.034 39.4248 8.89034 39.1767 4.54163C38.6438 4.50887 29.7678 4.7298 28.2294 6.05532C28.2294 6.05532 27.1031 6.54505 25.2399 9.88155L20.815 18.1373C20.815 18.1373 20.1173 19.8836 21.5087 20.0364L39.4353 18.2514C39.5101 17.7195 39.6348 17.1903 39.6263 16.6495Z" fill="#100F0D"/>
<path d="M20.5821 16.7437C22.5209 12.2203 25.8058 6.49059 25.8058 6.49059C23.1516 9.02824 19.6797 15.5542 17.8374 19.2425C17.8374 19.2425 19.41 19.4761 20.5821 16.7437Z" fill="#173447"/>
<path d="M37.7034 17.4902C38.0184 13.3273 38.2028 9.15077 38.235 4.97006C36.1873 4.97006 33.7773 5.12966 30.9505 5.55218C30.9505 5.55218 31.935 5.41443 30.434 5.63283C29.4003 5.78823 28.3082 6.14691 27.3099 7.29603C25.7866 9.04324 21.1261 18.3604 21.1261 18.3604C21.1261 18.3604 20.6096 19.6903 22.0916 19.6053C22.9704 19.5551 29.4325 18.789 37.666 17.9538C37.6797 17.8003 37.6916 17.6448 37.7034 17.4902Z" fill="#173447"/>
<path d="M23.9963 8.62424C23.9982 8.62172 24.0002 8.6192 24.0022 8.61668C24.0002 8.6192 23.9982 8.62172 23.9963 8.62424ZM24.2942 8.22608C24.2962 8.22356 24.2982 8.22103 24.3001 8.21851C24.2982 8.22103 24.2962 8.22356 24.2942 8.22608ZM24.3494 8.15467C24.3533 8.14879 24.3579 8.14292 24.3625 8.13704C24.3579 8.14292 24.3533 8.14879 24.3494 8.15467ZM24.4097 8.07572C24.4143 8.06984 24.4196 8.06312 24.4242 8.05724C24.4196 8.06312 24.415 8.06984 24.4097 8.07572ZM24.4662 8.00348C24.4747 7.99256 24.4832 7.98164 24.4918 7.97072C24.4832 7.98164 24.4747 7.99256 24.4662 8.00348ZM24.5279 7.92535C24.5364 7.91443 24.5449 7.90351 24.5535 7.89259C24.5449 7.90351 24.5364 7.91443 24.5279 7.92535ZM24.5902 7.8464C24.5994 7.83548 24.608 7.82372 24.6171 7.8128C24.6086 7.82372 24.5994 7.83548 24.5902 7.8464ZM24.6532 7.76743C24.6618 7.75735 24.6703 7.74643 24.6788 7.73551C24.6703 7.74643 24.6618 7.75735 24.6532 7.76743ZM24.7143 7.69267C24.7346 7.66747 24.755 7.64311 24.7747 7.61875C24.755 7.64311 24.7346 7.66747 24.7143 7.69267ZM24.8003 7.58767C24.8121 7.57339 24.8245 7.55828 24.8363 7.544C24.8245 7.55828 24.8127 7.57255 24.8003 7.58767ZM24.8731 7.49948C24.881 7.49024 24.8895 7.48099 24.8974 7.47091C24.8895 7.48099 24.8816 7.49024 24.8731 7.49948ZM24.9322 7.42975C24.9413 7.41883 24.9512 7.40708 24.9604 7.39616C24.9512 7.40792 24.9413 7.41883 24.9322 7.42975ZM24.9938 7.35751C25.0037 7.34575 25.0135 7.334 25.024 7.32224C25.0135 7.334 25.0037 7.34575 24.9938 7.35751ZM25.0529 7.28947C25.0641 7.27603 25.0752 7.26344 25.0864 7.25C25.0752 7.26344 25.0641 7.27603 25.0529 7.28947ZM25.1166 7.21555C25.1271 7.20379 25.1376 7.19203 25.1481 7.18027C25.1376 7.19203 25.1271 7.20379 25.1166 7.21555ZM25.1763 7.14751C25.1888 7.13407 25.2 7.12147 25.2118 7.10803C25.2 7.12147 25.1888 7.13407 25.1763 7.14751ZM25.2387 7.07863C25.2787 7.03411 25.3181 6.99043 25.3575 6.94759C25.3181 6.99043 25.2787 7.03411 25.2387 7.07863ZM25.3857 6.91735C25.3975 6.90559 25.4087 6.89299 25.4198 6.88123C25.4087 6.89299 25.3975 6.90559 25.3857 6.91735ZM25.4454 6.85435C25.4572 6.84175 25.469 6.82915 25.4802 6.81739C25.469 6.82915 25.4572 6.84175 25.4454 6.85435ZM25.5058 6.79051C25.5183 6.77791 25.5307 6.76447 25.5432 6.75187C25.5307 6.76447 25.5183 6.77791 25.5058 6.79051ZM25.5662 6.72835C25.5786 6.71575 25.5905 6.70315 25.6029 6.69055C25.5905 6.70315 25.5786 6.71575 25.5662 6.72835ZM25.6265 6.66703C25.639 6.65443 25.6521 6.64099 25.6646 6.62839C25.6521 6.64099 25.639 6.65443 25.6265 6.66703ZM25.6869 6.60655C25.7 6.59395 25.7125 6.58134 25.7257 6.56874C25.7125 6.58134 25.7 6.59395 25.6869 6.60655ZM25.7467 6.54774C25.7663 6.52842 25.786 6.50995 25.8057 6.49063C25.786 6.50995 25.7663 6.52842 25.7467 6.54774Z" fill="#F4BA29"/>
<path d="M18.4956 17.9431C19.9599 15.0897 22.0437 11.2844 23.9962 8.62414C23.9982 8.62162 24.0001 8.6191 24.0021 8.61658C24.0999 8.48302 24.197 8.35282 24.2942 8.22598C24.2961 8.22346 24.2981 8.22094 24.3001 8.21842C24.3165 8.19742 24.3329 8.17558 24.3493 8.15457C24.3532 8.1487 24.3578 8.14282 24.3624 8.13694C24.3782 8.11678 24.3939 8.09578 24.4097 8.07562C24.4149 8.06974 24.4195 8.06302 24.4241 8.05714C24.4379 8.0395 24.4523 8.02102 24.4661 8.00338C24.4746 7.99246 24.4832 7.98154 24.4917 7.97062C24.5035 7.9555 24.5154 7.94038 24.5278 7.92526C24.5364 7.91434 24.5449 7.90341 24.5534 7.89249C24.5652 7.87737 24.5777 7.86142 24.5902 7.8463C24.5993 7.83538 24.6085 7.82362 24.6171 7.8127C24.6295 7.79758 24.6413 7.78245 24.6532 7.76733C24.6617 7.75725 24.6702 7.74633 24.6788 7.73541C24.6906 7.72113 24.7024 7.70685 24.7142 7.69257C24.7346 7.66737 24.7549 7.64301 24.7746 7.61865C24.7831 7.60773 24.7917 7.59765 24.8002 7.58757C24.8127 7.57245 24.8245 7.55818 24.8363 7.5439C24.8487 7.52878 24.8606 7.5145 24.873 7.49938C24.8816 7.49014 24.8894 7.48089 24.8973 7.47081C24.9091 7.45737 24.9203 7.44393 24.9321 7.42965C24.9413 7.41873 24.9511 7.40782 24.9603 7.39606C24.9715 7.38346 24.9826 7.37085 24.9938 7.35741C25.0036 7.34565 25.0135 7.3339 25.024 7.32214C25.0332 7.31122 25.043 7.3003 25.0529 7.28938C25.064 7.27594 25.0752 7.26334 25.0863 7.2499C25.0962 7.23898 25.1067 7.22722 25.1165 7.21546C25.127 7.2037 25.1375 7.19193 25.148 7.18017C25.1579 7.16925 25.1671 7.15833 25.1763 7.14741C25.1887 7.13397 25.1999 7.12137 25.2117 7.10793C25.2209 7.09785 25.2301 7.08777 25.2386 7.07853C25.2786 7.03401 25.318 6.99033 25.3574 6.94749C25.3672 6.93741 25.3764 6.92733 25.3856 6.91725C25.3974 6.90549 25.4086 6.8929 25.4197 6.88114C25.4283 6.8719 25.4368 6.86265 25.4454 6.85425C25.4572 6.84165 25.469 6.82906 25.4801 6.8173C25.4887 6.80806 25.4972 6.79965 25.5057 6.79041C25.5182 6.77781 25.5307 6.76437 25.5431 6.75177C25.5503 6.74421 25.5582 6.73581 25.5661 6.72825C25.5786 6.71565 25.5904 6.70305 25.6029 6.69045C25.6107 6.68289 25.6186 6.67449 25.6265 6.66693C25.639 6.65433 25.6521 6.64089 25.6646 6.62829C25.6718 6.62157 25.6796 6.61317 25.6869 6.60645C25.7 6.59385 25.7125 6.58125 25.7256 6.56865C25.7328 6.56109 25.74 6.55437 25.7466 6.54765C25.7663 6.52833 25.786 6.50985 25.8057 6.49053C25.8057 6.49053 22.5208 12.2202 20.582 16.7436L20.5361 16.8485C19.8627 17.1946 19.1926 17.5533 18.5245 17.9231L18.4956 17.9431Z" fill="#245C7A"/>
<path d="M38.187 7.92356C38.1877 7.90592 38.1877 7.88912 38.1883 7.87148C38.1877 7.88912 38.1877 7.90592 38.187 7.92356ZM38.1956 7.57076C38.1962 7.5422 38.1969 7.51364 38.1975 7.48424C38.1969 7.51364 38.1962 7.5422 38.1956 7.57076ZM38.2034 7.20284C38.2041 7.17092 38.2048 7.13984 38.2054 7.10792C38.2048 7.13984 38.2041 7.17092 38.2034 7.20284ZM38.2107 6.82904C38.2113 6.79964 38.212 6.7694 38.212 6.74C38.212 6.77024 38.2113 6.79964 38.2107 6.82904ZM38.2172 6.45355C38.2179 6.42667 38.2179 6.39896 38.2185 6.37208C38.2179 6.39896 38.2179 6.42667 38.2172 6.45355ZM38.2231 6.08228C38.2231 6.05624 38.2238 6.03019 38.2238 6.00415C38.2238 6.03019 38.2231 6.05624 38.2231 6.08228ZM38.2277 5.70679C38.2277 5.69083 38.2284 5.67487 38.2284 5.65891C38.2284 5.67487 38.2277 5.69083 38.2277 5.70679ZM38.2317 5.33888C38.233 5.21624 38.2343 5.09275 38.2349 4.97011C38.2343 5.09275 38.233 5.21624 38.2317 5.33888Z" fill="#131C21"/>
<path d="M22.3548 15.9497C23.8453 13.0642 26.2874 8.47278 27.31 7.29594C28.3082 6.14681 29.4004 5.78813 30.4341 5.63273C31.0982 5.53613 31.2761 5.50925 31.2676 5.50925C31.2564 5.50925 30.9506 5.55209 30.9506 5.55209C33.7773 5.12956 36.1873 4.96997 38.235 4.96997C38.2344 5.09261 38.2331 5.21609 38.2317 5.33873C38.2311 5.44541 38.2298 5.55209 38.2285 5.65877C38.2285 5.67473 38.2278 5.69068 38.2278 5.70664C38.2265 5.80576 38.2252 5.90489 38.2239 6.00401C38.2239 6.03005 38.2232 6.05609 38.2232 6.08213C38.2219 6.17873 38.2199 6.27533 38.2186 6.37193C38.218 6.39881 38.218 6.42653 38.2173 6.45341C38.216 6.54917 38.214 6.64493 38.2121 6.73985C38.2121 6.76925 38.2114 6.7995 38.2108 6.8289C38.2088 6.92214 38.2075 7.01454 38.2055 7.10778C38.2048 7.1397 38.2042 7.17078 38.2035 7.2027C38.2015 7.29678 38.1996 7.39086 38.1976 7.4841C38.197 7.5135 38.1963 7.54206 38.1957 7.57062C38.193 7.67058 38.191 7.77138 38.1884 7.87134C38.1878 7.88898 38.1878 7.90578 38.1871 7.92342C38.1635 8.88942 38.1313 9.85627 38.092 10.8223C33.4361 11.7169 28.8445 13.1449 24.3664 15.0467C23.6898 15.3306 23.0216 15.6321 22.3548 15.9497Z" fill="#245C7A"/>
<path d="M21.2817 17.7497L20.0504 18.798C20.0504 18.798 19.4899 19.303 19.8988 19.848C19.8988 19.848 20.0885 20.1322 20.6063 20.1479C21.1222 20.1607 22.1939 19.848 22.1939 19.848L21.2817 17.7497Z" fill="#100F0D"/>
<path d="M24.2214 16.9058C23.8965 16.0068 22.9494 16.0807 22.9481 16.0807C22.2367 16.1336 21.2798 16.709 20.8748 17.4632C20.4115 18.3317 20.4679 20.2982 21.3415 20.1345C22.341 19.9439 21.9584 20.0843 23.5789 19.6138C24.0009 19.4936 24.6198 17.9994 24.2214 16.9058Z" fill="#201F1E"/>
<path d="M21.2411 20.1447C21.1768 20.1447 21.1177 20.1313 21.0632 20.1077C20.7331 19.9639 20.5861 19.4124 20.5874 18.8175C20.5887 18.3279 20.6904 17.8085 20.8749 17.4633C21.2798 16.7091 22.2367 16.1337 22.9482 16.0808C22.9482 16.0808 22.9672 16.0799 23.0013 16.0799C23.2061 16.0799 23.9425 16.1345 24.2214 16.9058C24.3087 17.145 24.3468 17.4039 24.3494 17.6625C24.3586 18.5874 23.9084 19.5197 23.5789 19.6138C21.9585 20.0844 22.3411 19.944 21.3415 20.1346C21.3067 20.1414 21.2733 20.1447 21.2411 20.1447ZM22.6043 16.3538C22.5787 16.3538 22.5636 16.3546 22.5636 16.3546C22.0162 16.3941 21.2798 16.8333 20.9707 17.4154C20.6274 18.0581 20.655 19.477 21.2503 19.477C21.2752 19.477 21.3008 19.4744 21.3277 19.4694C22.0969 19.3231 21.8042 19.4307 23.0486 19.0711C23.3735 18.9753 23.8506 17.8288 23.5448 16.9871C23.3288 16.3949 22.7618 16.3538 22.6043 16.3538Z" fill="#39393A"/>
<path d="M15.9058 21.3685L16.8489 21.2602C16.843 21.2716 16.8378 21.2835 16.8325 21.2946C16.4669 21.3146 16.1565 21.3389 15.9058 21.3685Z" fill="#F3BA15"/>
<path d="M40.4965 21.4694C33.3899 21.3595 26.3411 21.2088 21.4883 21.2088C19.5331 21.2088 17.9337 21.2335 16.8324 21.2949C16.8377 21.2837 16.8429 21.2718 16.8488 21.2604L40.4965 18.5461V21.4694Z" fill="#F3BA15"/>
<path d="M36.1104 19.4777L38.2579 19.3038C38.2579 19.3038 38.6819 19.2854 38.5329 19.7641C38.3865 20.2438 38.3412 20.3304 38.3412 20.3304C38.3412 20.3304 38.3032 20.5749 37.8923 20.6914C37.4808 20.8059 35.0012 21.1409 35.0012 21.1409C35.0012 21.1409 34.6528 21.2157 34.0962 20.9057C33.5397 20.5976 33.537 19.9951 33.7155 19.8379C33.7155 19.8379 33.7096 19.7743 34.0621 19.6751C34.4126 19.5777 36.1104 19.4777 36.1104 19.4777Z" fill="#313031"/>
<path d="M34.2957 19.7447L37.9061 19.4179C37.9061 19.4179 38.3078 19.3854 38.3754 19.6088C38.4456 19.8323 38.2441 20.0613 37.6954 20.1496C37.1461 20.2379 35.0505 20.5178 35.0505 20.5178C35.0505 20.5178 34.2662 20.6326 33.9938 20.3747C33.7221 20.1135 33.8409 19.8093 34.2957 19.7447Z" fill="#EE9312"/>
<path d="M3.90905 24.1996C3.34462 24.1624 2.84384 24.1424 2.32075 24.4558C1.82852 24.7504 1.10068 25.1134 0.847342 25.4487C0.760708 25.5947 0.687178 25.7594 0.626796 25.9317C0.509316 26.4482 0.442401 26.9909 0.427306 27.5293C0.44437 27.6947 0.471252 27.8391 0.514569 27.9493C0.666178 28.3474 3.07816 26.039 4.19587 24.8732C4.33304 24.6717 4.47808 24.2458 3.90905 24.1996Z" fill="#D6D4C7"/>
<path d="M0.485093 27.8609C0.485093 27.8598 0.484313 27.858 0.484313 27.8563C0.484313 27.858 0.485093 27.8598 0.485093 27.8609Z" fill="#F1AD58"/>
<path d="M3.8061 24.1928C3.7995 24.1928 3.7929 24.1916 3.7863 24.1916C3.7929 24.1916 3.7995 24.1928 3.8061 24.1928Z" fill="#F3BF5A"/>
<path d="M0.485054 27.8609C0.485054 27.8599 0.484381 27.8582 0.484381 27.8566C0.458785 27.7634 0.440432 27.6518 0.427306 27.5291C0.442401 26.9906 0.509316 26.4479 0.626796 25.9315C0.687178 25.7592 0.760708 25.5945 0.847342 25.4485C1.10068 25.1131 1.82852 24.7502 2.32075 24.4556C2.69157 24.2337 3.0519 24.1793 3.43191 24.1793C3.54807 24.1793 3.66555 24.1842 3.78631 24.1917C3.79353 24.1917 3.80076 24.1928 3.80797 24.1928C2.37064 24.783 1.26279 26.2051 0.485054 27.8609Z" fill="#E8E7E0"/>
<path d="M43.6024 18.993C43.6024 19.1637 43.4928 19.3032 43.3595 19.3032C43.223 19.3032 43.1154 19.1637 43.1154 18.993V17.8272C43.1154 17.6559 43.223 17.5165 43.3595 17.5165C43.4928 17.5165 43.6024 17.6559 43.6024 17.8272V18.993Z" fill="#3A413E"/>
<path d="M69.1074 18.993C69.1074 19.1637 68.9998 19.3032 68.8626 19.3032C68.728 19.3032 68.6204 19.1637 68.6204 18.993V17.8272C68.6204 17.6559 68.728 17.5165 68.8626 17.5165C68.9998 17.5165 69.1074 17.6559 69.1074 17.8272V18.993Z" fill="#3A413E"/>
<path d="M52.1035 18.993C52.1035 19.1637 51.9946 19.3032 51.8594 19.3032C51.7261 19.3032 51.6152 19.1637 51.6152 18.993V17.8272C51.6152 17.6559 51.7261 17.5165 51.8594 17.5165C51.9946 17.5165 52.1035 17.6559 52.1035 17.8272V18.993Z" fill="#3A413E"/>
<path d="M60.6055 18.993C60.6055 19.1637 60.4959 19.3032 60.3614 19.3032C60.2282 19.3032 60.1205 19.1637 60.1205 18.993V17.8272C60.1205 17.6559 60.2282 17.5165 60.3614 17.5165C60.4959 17.5165 60.6055 17.6559 60.6055 17.8272V18.993Z" fill="#3A413E"/>
<path d="M70.7344 18.5402L70.5106 17.2231H40.7664V18.5402H70.7344Z" fill="#5E6B66"/>
<path d="M70.5467 17.4346H40.7664V17.223H70.5106L70.5467 17.4346Z" fill="#A0AEA4"/>
<path d="M72.3246 30.1073C72.2787 30.0676 72.2229 30.0482 72.1632 30.0384H69.8536C69.6528 30.0729 69.4421 30.0567 69.2511 30.1414C69.091 30.2146 68.923 30.3567 68.923 30.8489V35.5384L69.0148 35.6973L69.1015 35.7655H69.4231C69.4231 35.7655 69.914 35.8813 70.6524 35.478C71.3894 35.0764 72.4631 32.3356 72.4631 32.3356L72.4855 30.4121C72.452 30.2943 72.4133 30.1854 72.3246 30.1073Z" fill="#100F0D"/>
<path d="M72.4651 32.1131L72.4855 30.4121C72.452 30.2942 72.4133 30.1853 72.3246 30.1072C72.2787 30.0675 72.2229 30.0482 72.1632 30.0383H69.8536C69.6528 30.0728 69.4421 30.0566 69.2511 30.1413C69.091 30.2145 68.923 30.3566 68.923 30.8488V32.1131H72.4651Z" fill="#262B36"/>
<path d="M68.3008 20.233H70.6524C70.6524 20.233 70.8132 20.3078 70.8336 20.5352C70.8526 20.7622 70.8336 23.0988 70.8336 23.0988C70.8336 23.0988 70.8624 23.2764 70.7108 23.3022C70.5586 23.3239 67.8683 21.3138 67.8683 21.3138C67.8683 21.3138 66.7677 20.3839 68.3008 20.233Z" fill="#A52221"/>
<path d="M68.6067 20.233H70.5756C70.5756 20.233 70.7108 20.2966 70.7259 20.4867C70.7449 20.6746 70.7259 22.6329 70.7259 22.6329C70.7259 22.6329 70.7515 22.7815 70.6248 22.8032C70.4969 22.8235 68.2444 21.1382 68.2444 21.1382C68.2444 21.1382 67.3229 20.3596 68.6067 20.233Z" fill="#E42823"/>
<path d="M69.3515 22.6479L70.762 23.5585C70.762 23.5585 70.842 23.5995 70.842 23.7836V25.0636C70.842 25.0636 70.8676 25.2208 70.7397 25.2493C70.6097 25.2779 69.4887 24.0398 69.4887 24.0398C69.4887 24.0398 69.3548 23.8994 69.299 23.6566C69.2439 23.4137 69.1671 22.8602 69.1671 22.8602C69.1671 22.8602 69.0969 22.4839 69.3515 22.6479Z" fill="#8F391C"/>
<path d="M69.6988 22.952L70.7758 23.6434C70.7758 23.6434 70.8369 23.6762 70.8369 23.819V24.7967C70.8369 24.7967 70.8559 24.9146 70.7568 24.9362C70.6597 24.9589 69.8032 24.0132 69.8032 24.0132C69.8032 24.0132 69.7021 23.9066 69.6595 23.7224C69.6188 23.5367 69.5584 23.1141 69.5584 23.1141C69.5584 23.1141 69.5059 22.828 69.6988 22.952Z" fill="#E8531C"/>
<path d="M67.4858 20.7016H67.4786C67.4734 20.4933 67.6565 20.2967 68.2924 20.233H68.301C67.6643 20.296 67.4819 20.4926 67.4858 20.7016Z" fill="#F6D04B"/>
<path d="M70.8303 20.7016H70.7325C70.7312 20.594 70.7292 20.5179 70.7259 20.4867C70.7109 20.2967 70.5756 20.233 70.5756 20.233H70.6439C70.6439 20.233 70.8067 20.3079 70.825 20.5353C70.827 20.5632 70.8283 20.6229 70.8303 20.7016ZM67.9346 20.7016H67.4857C67.4818 20.4926 67.6642 20.296 68.3008 20.233H68.6067C67.9976 20.2934 67.8847 20.5002 67.9346 20.7016Z" fill="#C0575B"/>
<path d="M70.7325 20.7016H67.9346C67.8847 20.5002 67.9976 20.2934 68.6067 20.233H70.5756C70.5756 20.233 70.7108 20.2967 70.7259 20.4867C70.7292 20.5179 70.7312 20.594 70.7325 20.7016Z" fill="#EC5458"/>
<path d="M69.1587 22.7419C69.1567 22.7396 69.1541 22.7379 69.1521 22.736C69.1554 22.673 69.1731 22.61 69.2328 22.6077C69.177 22.6152 69.1613 22.6799 69.1587 22.7419Z" fill="#F1B345"/>
<path d="M70.8355 23.7784C70.825 23.6701 70.7758 23.6432 70.7758 23.6432L69.6988 22.9518C69.664 22.9301 69.6377 22.921 69.6167 22.921C69.538 22.921 69.5504 23.0568 69.5563 23.1008C69.4257 22.9781 69.2938 22.857 69.1586 22.7418C69.1612 22.6798 69.177 22.6151 69.2328 22.6077C69.2341 22.6077 69.2347 22.6077 69.236 22.6077C69.2629 22.6077 69.2977 22.6194 69.343 22.648L70.7534 23.5585C70.7534 23.5585 70.8322 23.5989 70.8355 23.7784Z" fill="#B07141"/>
<path d="M70.8356 24.2867C70.6269 24.0944 70.4168 23.9064 70.2081 23.7154C69.9883 23.5166 69.7743 23.3055 69.5564 23.1008C69.5505 23.0568 69.538 22.921 69.6168 22.921C69.6378 22.921 69.6641 22.9301 69.6988 22.9518L70.7758 23.6432C70.7758 23.6432 70.8251 23.6701 70.8356 23.7784C70.8356 23.7804 70.8356 23.782 70.8356 23.7837V24.2867Z" fill="#F08441"/>
<path d="M63.7518 4.93468C63.6252 4.93468 63.4972 4.85908 63.4171 4.71628L61.5256 1.37474C61.4764 1.31678 61.2736 1.0967 60.9205 1.05806H43.4238H43.4041C43.1186 1.05806 42.5174 1.1807 42.4078 1.57466C42.1492 2.50455 41.2592 4.42731 41.2212 4.50963C41.1043 4.76079 40.851 4.8448 40.6554 4.69528C40.4592 4.54576 40.3942 4.22068 40.511 3.97035C40.5196 3.95187 41.3971 2.05347 41.6287 1.22018C41.7318 0.8447 42.0048 0.348257 42.7104 0.116415C43.0628 0.000494956 43.3752 -0.0020256 43.4258 0.000494479H60.9376H60.9671C61.7088 0.0718944 62.1085 0.620416 62.1511 0.681736L62.176 0.722055L64.0866 4.09467C64.2205 4.33072 64.1784 4.66168 63.994 4.83472C63.9212 4.90192 63.8359 4.93468 63.7518 4.93468Z" fill="#201F1E"/>
<path d="M41.0085 3.33031L40.9698 3.31855L40.9409 3.18415L41.8178 1.20258C41.8453 1.12529 42.1768 0.275216 43.0523 0.157615H43.0622H60.6009L60.6783 0.255899L60.6009 0.355855H43.0654C42.2621 0.466735 41.9687 1.25466 41.9569 1.2891L41.9536 1.2975L41.0761 3.28076L41.0085 3.33031Z" fill="#48484D"/>
<path d="M62.8226 3.33031L62.7609 3.29083L61.6228 1.32354C61.4029 0.931259 60.7361 0.934619 60.7302 0.934619H60.7296L60.6528 0.836335L60.7282 0.736379C60.7611 0.736379 61.4824 0.733017 61.7495 1.20678L62.8836 3.17407L62.8692 3.31099L62.8226 3.33031Z" fill="#48484D"/>
<path d="M44.2232 3.38247C44.2232 3.05319 44.0151 2.78523 43.7578 2.78523H40.5688C40.3108 2.78523 40.1035 3.05319 40.1035 3.38247C40.1035 3.71259 40.3108 3.97887 40.5688 3.97887H43.7578C44.0151 3.97887 44.2232 3.71259 44.2232 3.38247Z" fill="#201F1E"/>
<path d="M40.1376 3.15818C40.1146 3.22706 40.1035 3.30435 40.1035 3.38247C40.1035 3.71259 40.3108 3.97887 40.5688 3.97887H43.7578C44.0151 3.97887 44.2232 3.71259 44.2232 3.38247C44.2232 3.30435 44.2126 3.22706 44.1897 3.15818H40.1376Z" fill="#12100E"/>
<path d="M63.9252 3.38247C63.9252 3.05319 63.7171 2.78523 63.4585 2.78523H60.2701C60.0122 2.78523 59.8041 3.05319 59.8041 3.38247C59.8041 3.71259 60.0122 3.97887 60.2701 3.97887H63.4585C63.7171 3.97887 63.9252 3.71259 63.9252 3.38247Z" fill="#201F1E"/>
<path d="M59.839 3.15818C59.8153 3.22706 59.8041 3.30435 59.8041 3.38247C59.8041 3.71259 60.0122 3.97887 60.2701 3.97887H63.4585C63.7171 3.97887 63.9252 3.71259 63.9252 3.38247C63.9252 3.30435 63.912 3.22706 63.891 3.15818H59.839Z" fill="#12100E"/>
<path d="M45.0955 16.0801C44.3893 16.0607 44.2915 15.4181 44.2915 15.4181C44.2915 15.4181 41.9924 6.67285 41.8159 5.76817C41.6394 4.86264 42.4046 4.96932 42.4046 4.96932H65.5581C64.9491 4.005 64.4523 3.40859 64.1845 3.46487H40.4081L40.2578 3.53375C40.0997 3.62111 40.0097 3.7656 39.9526 3.95208L40.7665 17.2232H70.51C70.51 17.2232 71.0679 16.9535 70.831 16.0801H45.0955Z" fill="#292B21"/>
<path d="M45.0954 16.0801C44.3892 16.0607 44.2914 15.4181 44.2914 15.4181C44.2914 15.4181 44.2658 15.3249 44.2205 15.1544H40.6384L40.7664 17.2232H70.5099C70.5099 17.2232 71.0678 16.9535 70.8309 16.0801H45.0954Z" fill="#1D1C16"/>
<path d="M42.4038 4.97254C42.4038 4.97254 41.6399 4.86502 41.8158 5.77055C41.9923 6.67439 44.2908 15.4222 44.2908 15.4222C44.2908 15.4222 44.3885 16.064 45.0961 16.0808H67.8886C65.5469 10.2772 63.4683 6.60635 62.4635 4.97254H42.4038Z" fill="#1A1C19"/>
<path d="M44.8001 5.67629C44.8001 5.67629 44.1339 5.58222 44.2875 6.37434C44.4417 7.16394 46.4481 14.7987 46.4481 14.7987C46.4481 14.7987 46.5334 15.359 47.1504 15.3767H67.0492C65.0035 10.3098 63.1901 7.10262 62.3132 5.67629H44.8001Z" fill="#173447"/>
<path d="M45.0226 9.32529C44.9734 9.13293 44.9248 8.94393 44.8782 8.76081C44.9248 8.94393 44.9734 9.13293 45.0233 9.32529C45.0226 9.32529 45.0226 9.32529 45.0226 9.32529ZM44.3518 6.66331C44.3518 6.66247 44.3518 6.66164 44.3518 6.6608C44.3518 6.66164 44.3518 6.66247 44.3518 6.66331ZM44.3459 6.63728C44.3217 6.53228 44.3026 6.44996 44.2915 6.39451C44.3026 6.44996 44.3217 6.53228 44.3459 6.63728ZM44.2915 6.39451C44.2908 6.39115 44.2901 6.3878 44.2895 6.38528C44.2901 6.3878 44.2908 6.39115 44.2915 6.39451Z" fill="#1E3137"/>
<path d="M45.0232 9.32529C44.9734 9.13293 44.9248 8.94393 44.8782 8.76081C44.6472 7.85781 44.4529 7.08751 44.3518 6.66331C44.3518 6.66247 44.3518 6.66164 44.3518 6.6608C44.3499 6.65324 44.3479 6.64484 44.3459 6.63728C44.3216 6.53228 44.3026 6.44996 44.2914 6.39451C44.2908 6.39115 44.2901 6.3878 44.2895 6.38528C44.2888 6.38108 44.2882 6.37772 44.2875 6.37436C44.2718 6.29456 44.2652 6.22315 44.2645 6.16099C44.2626 5.71999 44.5947 5.67295 44.7371 5.67295C44.7758 5.67295 44.8001 5.67631 44.8001 5.67631H62.3132C62.5232 6.01987 62.7864 6.46423 63.0962 7.0136C62.9814 7.01948 62.8652 7.0262 62.751 7.03292C60.0706 7.19504 57.3941 7.45544 54.7223 7.757C51.9894 8.0678 49.265 8.4374 46.5538 8.99516C46.0431 9.10016 45.5319 9.21189 45.0232 9.32529Z" fill="#1E4A66"/>
<path d="M65.558 4.9693H62.4628C63.4683 6.60311 65.5475 10.2756 67.8892 16.08H70.8309C70.4082 14.5243 67.4502 7.96811 65.558 4.9693Z" fill="#BE891B"/>
<path d="M63.6587 5.19259C63.6587 5.19259 63.2748 5.31692 63.6732 5.87972C63.9698 6.3014 67.1077 12.1461 68.1073 14.987C68.1073 14.987 68.2694 15.4944 68.5339 15.5708C68.7997 15.6464 70.1694 15.5708 70.1694 15.5708C70.1694 15.5708 70.508 15.533 70.3755 15.1937C70.2422 14.8543 67.342 7.85961 65.6763 5.54204C65.6763 5.54204 65.4846 5.25896 65.2936 5.20184C65.102 5.14556 63.6587 5.19259 63.6587 5.19259Z" fill="#FAB112"/>
<path d="M43.1771 6.25694C43.1771 6.36278 43.1088 6.44847 43.0274 6.44847C42.9441 6.44847 42.8765 6.36278 42.8765 6.25694C42.8765 6.15026 42.9441 6.06542 43.0274 6.06542C43.1088 6.06542 43.1771 6.15026 43.1771 6.25694Z" fill="#100F0D"/>
<path d="M44.0514 9.33643C44.0514 9.44311 43.9831 9.52878 43.9004 9.52878C43.819 9.52878 43.7521 9.44311 43.7521 9.33643C43.7521 9.22975 43.819 9.1449 43.9004 9.1449C43.9831 9.1449 44.0514 9.22975 44.0514 9.33643Z" fill="#100F0D"/>
<path d="M44.8631 12.4159C44.8631 12.5209 44.7956 12.6065 44.7122 12.6065C44.6308 12.6065 44.5632 12.5209 44.5632 12.4159C44.5632 12.3109 44.6308 12.2252 44.7122 12.2252C44.7956 12.2252 44.8631 12.3109 44.8631 12.4159Z" fill="#100F0D"/>
<path d="M45.7236 15.496C45.7236 15.601 45.6573 15.6867 45.5726 15.6867C45.4919 15.6867 45.4236 15.601 45.4236 15.496C45.4236 15.3885 45.4919 15.3045 45.5726 15.3045C45.6573 15.3045 45.7236 15.3885 45.7236 15.496Z" fill="#100F0D"/>
<path d="M15.6545 25.5493H9.8599C9.25215 25.5493 7.64157 26.9327 7.39282 29.2437L6.92552 35.1909H18.7156L18.0474 29.1403C17.6372 26.7555 16.5386 25.5493 15.6545 25.5493Z" fill="#100F0D"/>
<path d="M19.5038 27.4107C19.0168 24.595 17.1267 23.0351 16.0765 23.0351H9.18718C8.46392 23.0351 5.83537 24.6193 5.53412 28.9679L4.89684 35.4068L6.94587 35.4829L7.39215 29.2436C7.64155 26.9319 9.25217 25.5492 9.86058 25.5492H15.6545C16.5386 25.5492 17.6373 26.7548 18.0474 29.1409L18.7162 35.1899L21.0744 35.2119L19.5038 27.4107Z" fill="#313031"/>
<path d="M21.0743 35.2121L19.2097 27.2251C18.1911 24.4725 16.673 23.6545 15.7351 23.6545L9.89788 23.6869C7.92893 23.9239 6.50865 26.3061 5.85365 28.8943L5.35616 32.4686H5.20586L5.53401 28.9681C5.83526 24.6195 8.46382 23.0353 9.18708 23.0353H16.0764C17.1265 23.0353 19.0167 24.5952 19.5037 27.4109L21.0743 35.2121Z" fill="#403F42"/>
<path d="M18.3827 35.0936C18.3827 38.908 15.9668 42 12.9859 42C10.0068 42 7.58964 38.908 7.58964 35.0936C7.58964 31.2781 10.0068 28.1862 12.9859 28.1862C15.9668 28.1862 18.3827 31.2781 18.3827 35.0936Z" fill="#31302F"/>
<path d="M18.3827 35.0936C18.3827 38.908 15.9668 42 12.9859 42C10.0068 42 7.58964 38.908 7.58964 35.0936C7.58964 31.2781 10.0068 28.1862 12.9859 28.1862C15.9668 28.1862 18.3827 31.2781 18.3827 35.0936Z" fill="#201F1E"/>
<path d="M16.6488 35.0936C16.6488 37.6798 15.0087 39.7789 12.9859 39.7789C10.9638 39.7789 9.32431 37.6798 9.32431 35.0936C9.32431 32.5047 10.9638 30.4069 12.9859 30.4069C15.0087 30.4069 16.6488 32.5047 16.6488 35.0936Z" fill="#100F0D"/>
<path d="M16.3291 35.0935C16.3291 37.4554 14.832 39.37 12.9858 39.37C11.1389 39.37 9.64322 37.4554 9.64322 35.0935C9.64322 32.7304 11.1389 30.8145 12.9858 30.8145C14.832 30.8145 16.3291 32.7304 16.3291 35.0935Z" fill="#D6D4C7"/>
<path d="M14.662 32.5439L14.6469 32.3953C14.2925 31.9854 13.8337 31.72 13.3264 31.6704L13.1977 31.7492L13.1538 31.8525V34.2315L13.1905 34.3214L13.2233 34.3434L13.312 34.3181L14.6462 32.6118L14.662 32.5439Z" fill="#454543"/>
<path d="M15.64 34.8932L15.7122 34.7768C15.6866 34.1642 15.5074 33.561 15.1786 33.0679L15.0441 33.0059L14.9554 33.0403L13.6415 34.7219L13.6172 34.8184L13.6284 34.863L13.7032 34.926H15.5914L15.64 34.8932Z" fill="#454543"/>
<path d="M15.0022 37.3639L15.1183 37.3498C15.4445 36.9012 15.6585 36.3175 15.7077 35.6704L15.6493 35.5051L15.5692 35.4453L13.7105 35.4049L13.6383 35.4505L13.6219 35.4916L13.6403 35.6051L14.949 37.3429L15.0022 37.3639Z" fill="#454543"/>
<path d="M13.1978 38.4231L13.2917 38.5156C13.7695 38.4746 14.2368 38.2377 14.6181 37.8065L14.6641 37.6352L14.6385 37.5227L13.3042 35.863L13.2287 35.8351L13.1939 35.8495L13.1453 35.9477L13.1729 38.3627L13.1978 38.4231Z" fill="#454543"/>
<path d="M11.3103 32.5439L11.324 32.3953C11.6785 31.9854 12.1392 31.72 12.6446 31.6704L12.7738 31.7492L12.8191 31.8525V34.2315L12.7817 34.3214L12.7496 34.3434L12.661 34.3181L11.326 32.6118L11.3103 32.5439Z" fill="#454543"/>
<path d="M10.3317 34.8932L10.2602 34.7768C10.2844 34.1642 10.4636 33.561 10.7951 33.0679L10.9289 33.0059L11.0156 33.0403L12.3315 34.7219L12.3558 34.8184L12.344 34.863L12.2672 34.926H10.3803L10.3317 34.8932Z" fill="#454543"/>
<path d="M10.9703 37.3639L10.8548 37.3498C10.5273 36.9012 10.312 36.3175 10.2654 35.6704L10.3232 35.5051L10.4039 35.4453L12.2632 35.4049L12.3334 35.4505L12.3505 35.4916L12.3334 35.6051L11.0221 37.3429L10.9703 37.3639Z" fill="#454543"/>
<path d="M12.7738 38.4231L12.6819 38.5156C12.2022 38.4746 11.7336 38.2377 11.3536 37.8065L11.3083 37.6352L11.3345 37.5227L12.6675 35.863L12.7436 35.8351L12.7771 35.8495L12.827 35.9477L12.8007 38.3627L12.7738 38.4231Z" fill="#454543"/>
<path d="M13.9671 35.0935C13.9671 35.7872 13.5287 36.3483 12.9859 36.3483C12.4438 36.3483 12.0041 35.7872 12.0041 35.0935C12.0041 34.3986 12.4438 33.8358 12.9859 33.8358C13.5287 33.8358 13.9671 34.3986 13.9671 35.0935Z" fill="#D6D4C7"/>
<path d="M13.622 34.4751C13.622 34.561 13.5682 34.6322 13.4999 34.6322C13.4316 34.6322 13.3778 34.561 13.3778 34.4751C13.3778 34.3878 13.4316 34.3182 13.4999 34.3182C13.5682 34.3182 13.622 34.3878 13.622 34.4751Z" fill="#454543"/>
<path d="M13.1131 34.252C13.1131 34.3376 13.058 34.4071 12.991 34.4071C12.9241 34.4071 12.8683 34.3376 12.8683 34.252C12.8683 34.1653 12.9241 34.0954 12.991 34.0954C13.058 34.0954 13.1131 34.1653 13.1131 34.252Z" fill="#454543"/>
<path d="M12.5947 34.4997C12.5947 34.5853 12.5402 34.6549 12.4719 34.6549C12.4057 34.6549 12.3506 34.5853 12.3506 34.4997C12.3506 34.4124 12.4057 34.3435 12.4719 34.3435C12.5402 34.3435 12.5947 34.4124 12.5947 34.4997Z" fill="#454543"/>
<path d="M13.622 35.842C13.622 35.7554 13.5682 35.6865 13.4999 35.6865C13.4316 35.6865 13.3778 35.7554 13.3778 35.842C13.3778 35.93 13.4316 35.9989 13.4999 35.9989C13.5682 35.9989 13.622 35.93 13.622 35.842Z" fill="#454543"/>
<path d="M13.8614 35.189C13.8614 35.1027 13.8069 35.0322 13.7399 35.0322C13.6723 35.0322 13.6172 35.1027 13.6172 35.189C13.6172 35.2756 13.6723 35.3455 13.7399 35.3455C13.8069 35.3455 13.8614 35.2756 13.8614 35.189Z" fill="#454543"/>
<path d="M12.3558 35.189C12.3558 35.1027 12.3007 35.0322 12.2331 35.0322C12.1655 35.0322 12.1117 35.1027 12.1117 35.189C12.1117 35.2756 12.1655 35.3455 12.2331 35.3455C12.3007 35.3455 12.3558 35.2756 12.3558 35.189Z" fill="#454543"/>
<path d="M13.1131 36.0678C13.1131 35.9789 13.058 35.91 12.991 35.91C12.9241 35.91 12.8683 35.9789 12.8683 36.0678C12.8683 36.1518 12.9241 36.2207 12.991 36.2207C13.058 36.2207 13.1131 36.1518 13.1131 36.0678Z" fill="#454543"/>
<path d="M12.5947 35.8199C12.5947 35.7327 12.5402 35.6621 12.4719 35.6621C12.4057 35.6621 12.3506 35.7327 12.3506 35.8199C12.3506 35.9055 12.4057 35.9761 12.4719 35.9761C12.5402 35.9761 12.5947 35.9055 12.5947 35.8199Z" fill="#454543"/>
<path d="M60.6889 25.5493H54.8956C54.2878 25.5493 52.6759 26.9327 52.4272 29.2437L51.9599 35.1909H63.7506L63.0818 29.1403C62.6716 26.7555 61.5729 25.5493 60.6889 25.5493Z" fill="#100F0D"/>
<path d="M64.5388 27.4107C64.0532 24.595 62.163 23.0351 61.1115 23.0351H54.2215C53.4989 23.0351 50.8697 24.6193 50.5705 28.9679L49.9312 35.4068L51.9829 35.4829L52.4272 29.2436C52.6766 26.9319 54.2885 25.5492 54.8949 25.5492H60.6896C61.573 25.5492 62.6723 26.7548 63.0825 29.1409L63.7506 35.1899L66.1114 35.2119L64.5388 27.4107Z" fill="#313031"/>
<path d="M49.9312 35.7655L49.9653 35.4076L49.9811 35.4085L49.9312 35.7655Z" fill="#747677"/>
<path d="M49.9811 35.4086L49.9654 35.4077L50.5705 28.9681C50.8698 24.6195 53.499 23.0352 54.2216 23.0352H61.1116C62.163 23.0352 64.0532 24.5952 64.5389 27.4108L66.1114 35.212L64.2462 27.2251C63.2263 24.4725 61.7082 23.6545 60.7716 23.6545L54.9331 23.6869C52.9634 23.9239 51.5451 26.3061 50.8901 28.8943L49.9811 35.4086Z" fill="#403F42"/>
<path d="M63.4172 35.0936C63.4172 38.908 61.0013 42 58.0216 42C55.0413 42 52.6247 38.908 52.6247 35.0936C52.6247 31.2781 55.0413 28.1862 58.0216 28.1862C61.0013 28.1862 63.4172 31.2781 63.4172 35.0936Z" fill="#31302F"/>
<path d="M63.4172 35.0936C63.4172 38.908 61.0013 42 58.0216 42C55.0413 42 52.6247 38.908 52.6247 35.0936C52.6247 31.2781 55.0413 28.1862 58.0216 28.1862C61.0013 28.1862 63.4172 31.2781 63.4172 35.0936Z" fill="#201F1E"/>
<path d="M61.6832 35.0936C61.6832 37.6798 60.0444 39.7789 58.0216 39.7789C55.9976 39.7789 54.3601 37.6798 54.3601 35.0936C54.3601 32.5047 55.9976 30.4069 58.0216 30.4069C60.0444 30.4069 61.6832 32.5047 61.6832 35.0936Z" fill="#100F0D"/>
<path d="M61.3649 35.0935C61.3649 37.4554 59.8665 39.37 58.0216 39.37C56.176 39.37 54.6777 37.4554 54.6777 35.0935C54.6777 32.7304 56.176 30.8145 58.0216 30.8145C59.8665 30.8145 61.3649 32.7304 61.3649 35.0935Z" fill="#D6D4C7"/>
<path d="M59.6986 32.5439L59.6828 32.3953C59.3271 31.9854 58.869 31.72 58.3623 31.6704L58.233 31.7492L58.1878 31.8525V34.2315L58.2252 34.3214L58.258 34.3434L58.3473 34.3181L59.6815 32.6118L59.6986 32.5439Z" fill="#454543"/>
<path d="M60.6764 34.8932L60.7473 34.7768C60.7217 34.1642 60.5425 33.561 60.213 33.0679L60.0791 33.0059L59.9912 33.0403L58.6766 34.7219L58.6523 34.8184L58.6634 34.863L58.7409 34.926H60.6271L60.6764 34.8932Z" fill="#454543"/>
<path d="M60.0365 37.3639L60.1533 37.3498C60.4782 36.9012 60.6935 36.3175 60.742 35.6704L60.6843 35.5051L60.6036 35.4453L58.7455 35.4049L58.6733 35.4505L58.6576 35.4916L58.6747 35.6051L59.9847 37.3429L60.0365 37.3639Z" fill="#454543"/>
<path d="M58.2329 38.4231L58.3261 38.5156C58.8039 38.4746 59.2739 38.2377 59.6545 37.8065L59.6985 37.6352L59.6729 37.5227L58.3386 35.863L58.2631 35.8351L58.2297 35.8495L58.1804 35.9477L58.2073 38.3627L58.2329 38.4231Z" fill="#454543"/>
<path d="M56.3446 32.5439L56.3584 32.3953C56.7141 31.9854 57.1742 31.72 57.6802 31.6704L57.8102 31.7492L57.8542 31.8525V34.2315L57.8161 34.3214L57.7846 34.3434L57.6953 34.3181L56.3604 32.6118L56.3446 32.5439Z" fill="#454543"/>
<path d="M55.3667 34.8932L55.2959 34.7768C55.3195 34.1642 55.4987 33.561 55.8294 33.0679L55.9633 33.0059L56.0526 33.0403L57.3652 34.7219L57.3908 34.8184L57.3783 34.863L57.3042 34.926H55.4147L55.3667 34.8932Z" fill="#454543"/>
<path d="M56.006 37.3639L55.8892 37.3498C55.563 36.9012 55.3484 36.3175 55.3005 35.6704L55.3576 35.5051L55.4383 35.4453L57.2977 35.4049L57.3679 35.4505L57.3856 35.4916L57.3679 35.6051L56.0579 37.3429L56.006 37.3639Z" fill="#454543"/>
<path d="M57.8104 38.4231L57.7165 38.5156C57.238 38.4746 56.7701 38.2377 56.3894 37.8065L56.3429 37.6352L56.3691 37.5227L57.7034 35.863L57.7795 35.8351L57.8143 35.8495L57.8629 35.9477L57.8353 38.3627L57.8104 38.4231Z" fill="#454543"/>
<path d="M59.0028 35.0935C59.0028 35.7872 58.563 36.3483 58.0216 36.3483C57.4795 36.3483 57.0384 35.7872 57.0384 35.0935C57.0384 34.3986 57.4795 33.8358 58.0216 33.8358C58.563 33.8358 59.0028 34.3986 59.0028 35.0935Z" fill="#D6D4C7"/>
<path d="M58.6575 34.4751C58.6575 34.561 58.6024 34.6322 58.5341 34.6322C58.4678 34.6322 58.4127 34.561 58.4127 34.4751C58.4127 34.3878 58.4678 34.3182 58.5341 34.3182C58.6024 34.3182 58.6575 34.3878 58.6575 34.4751Z" fill="#454543"/>
<path d="M58.1476 34.252C58.1476 34.3376 58.0931 34.4071 58.0268 34.4071C57.9586 34.4071 57.9041 34.3376 57.9041 34.252C57.9041 34.1653 57.9586 34.0954 58.0268 34.0954C58.0931 34.0954 58.1476 34.1653 58.1476 34.252Z" fill="#454543"/>
<path d="M57.6292 34.4997C57.6292 34.5853 57.576 34.6549 57.5084 34.6549C57.4402 34.6549 57.3857 34.5853 57.3857 34.4997C57.3857 34.4124 57.4402 34.3435 57.5084 34.3435C57.576 34.3435 57.6292 34.4124 57.6292 34.4997Z" fill="#454543"/>
<path d="M58.6575 35.842C58.6575 35.7554 58.6024 35.6865 58.5341 35.6865C58.4678 35.6865 58.4127 35.7554 58.4127 35.842C58.4127 35.93 58.4678 35.9989 58.5341 35.9989C58.6024 35.9989 58.6575 35.93 58.6575 35.842Z" fill="#454543"/>
<path d="M58.8951 35.189C58.8951 35.1027 58.8426 35.0322 58.7744 35.0322C58.7061 35.0322 58.6523 35.1027 58.6523 35.189C58.6523 35.2756 58.7061 35.3455 58.7744 35.3455C58.8426 35.3455 58.8951 35.2756 58.8951 35.189Z" fill="#454543"/>
<path d="M57.3909 35.189C57.3909 35.1027 57.3358 35.0322 57.2675 35.0322C57.1999 35.0322 57.1461 35.1027 57.1461 35.189C57.1461 35.2756 57.1999 35.3455 57.2675 35.3455C57.3358 35.3455 57.3909 35.2756 57.3909 35.189Z" fill="#454543"/>
<path d="M58.1476 36.0678C58.1476 35.9789 58.0931 35.91 58.0268 35.91C57.9586 35.91 57.9041 35.9789 57.9041 36.0678C57.9041 36.1518 57.9586 36.2207 58.0268 36.2207C58.0931 36.2207 58.1476 36.1518 58.1476 36.0678Z" fill="#454543"/>
<path d="M57.6292 35.8199C57.6292 35.7327 57.576 35.6621 57.5084 35.6621C57.4402 35.6621 57.3857 35.7327 57.3857 35.8199C57.3857 35.9055 57.4402 35.9761 57.5084 35.9761C57.576 35.9761 57.6292 35.9055 57.6292 35.8199Z" fill="#454543"/>
<path d="M7.25229 33.9125C7.28117 33.4311 7.31332 32.9501 7.3376 32.4687H0.427278C0.348521 32.4822 0.273026 32.499 0.211989 32.541C0.0951646 32.6174 0.0426605 32.7267 0 32.8474L0.0288741 34.7719C0.0288741 34.7719 1.45636 37.5153 2.44084 37.9176C3.42137 38.3226 4.07442 38.2067 4.07442 38.2067L6.92545 38.2218C6.92873 37.9993 7.21291 34.5537 7.25229 33.9125Z" fill="#313031"/>
<path d="M0.0256053 34.5492L0 32.8472L0.0256053 34.5492Z" fill="#747677"/>
<path d="M0.0256053 34.5492L0 32.8472C0.0426605 32.7265 0.0951646 32.6172 0.211989 32.5408C0.273026 32.4988 0.348521 32.482 0.427278 32.4685H5.69681C5.6745 32.9489 0.0341374 34.5466 0.0256053 34.5492Z" fill="#403F42"/>
</svg>
