<svg width="37" height="35" viewBox="0 0 37 35" fill="none" xmlns="http://www.w3.org/2000/svg">
<path d="M4.5476 10.1766L14.1858 2.46697L23.8241 10.1766C24.335 10.5853 24.9874 10.7743 25.6378 10.702C26.2881 10.6297 26.883 10.3019 27.2916 9.79082L15.7278 0.541326C14.8265 -0.180442 13.5452 -0.180442 12.6439 0.541326L1.07904 9.79183C1.48782 10.303 2.08303 10.6308 2.7336 10.703C3.38416 10.7751 4.03673 10.5858 4.5476 10.1766Z" fill="white"/>
<path d="M22.8192 10.9531L14.1848 4.04598L5.5505 10.9531V18.5274C5.75088 18.5134 5.95126 18.5013 6.16466 18.5013C7.59938 18.4791 9.0069 18.8939 10.2003 19.6906C10.4856 19.8751 10.7875 20.0328 11.102 20.1615V11.7175H17.2727V18.5975C18.0899 18.4693 18.9221 18.4693 19.7393 18.5975V14.8564L20.8414 14.7382C21.5094 14.6667 22.1699 14.5666 22.8232 14.4376L22.8192 10.9531Z" fill="white"/>
<path d="M18.498 25.9034C17.2866 25.8802 16.0979 26.2341 15.0966 26.9163C14.2878 27.484 13.3182 27.7772 12.3303 27.7528C11.3428 27.7771 10.3735 27.4839 9.5651 26.9163C8.56497 26.2347 7.37775 25.8807 6.16767 25.9034C4.95688 25.8801 3.76884 26.2341 2.76824 26.9163C1.95915 27.4849 0.988603 27.7782 0 27.7528V28.9862C1.21079 29.0094 2.39883 28.6554 3.39943 27.9733C4.20852 27.4046 5.17907 27.1113 6.16767 27.1367C7.15519 27.1124 8.12445 27.4056 8.9329 27.9733C9.93303 28.6548 11.1202 29.0088 12.3303 28.9862C13.5411 29.0092 14.729 28.6552 15.7298 27.9733C16.5385 27.4056 17.5081 27.1123 18.496 27.1367C19.2047 27.1132 19.9083 27.2631 20.5459 27.5735C20.365 27.0896 20.2127 26.5955 20.09 26.0937C19.5697 25.9625 19.0346 25.8985 18.498 25.9034Z" fill="white"/>
<path d="M6.16767 24.0517C7.15519 24.0274 8.12445 24.3207 8.9329 24.8883C9.93303 25.5699 11.1202 25.9238 12.3303 25.9012C13.541 25.9245 14.7289 25.5709 15.7298 24.8893C16.5385 24.3216 17.5081 24.0284 18.496 24.0527C18.9312 24.0466 19.3653 24.0971 19.7874 24.203C19.7544 23.8253 19.7333 23.4446 19.7333 23.0619V22.9326C19.3261 22.8558 18.9124 22.8179 18.498 22.8194C17.2866 22.7962 16.0979 23.1502 15.0966 23.8323C14.2878 24.4 13.3182 24.6933 12.3303 24.6689C11.3428 24.6932 10.3735 24.3999 9.5651 23.8323C8.56497 23.1507 7.37775 22.7968 6.16767 22.8194C4.95688 22.7962 3.76884 23.1501 2.76824 23.8323C1.95915 24.4009 0.988603 24.6943 0 24.6689V25.9022C1.21079 25.9255 2.39883 25.5715 3.39943 24.8893C4.20852 24.3207 5.17907 24.0274 6.16767 24.0527V24.0517Z" fill="white"/>
<path d="M6.16767 20.968C7.15519 20.9437 8.12445 21.237 8.9329 21.8046C9.93303 22.4862 11.1202 22.8401 12.3303 22.8175C13.541 22.8408 14.7289 22.4872 15.7298 21.8056C16.5385 21.2379 17.5081 20.9446 18.496 20.969C18.9125 20.9637 19.3281 21.0098 19.7333 21.1063V19.8469C19.326 19.7707 18.9124 19.7335 18.498 19.7357C17.2866 19.7125 16.0979 20.0665 15.0966 20.7486C14.2878 21.3163 13.3182 21.6095 12.3303 21.5852C11.3428 21.6095 10.3735 21.3162 9.5651 20.7486C8.56497 20.067 7.37775 19.7131 6.16767 19.7357C4.95688 19.7124 3.76884 20.0664 2.76824 20.7486C1.95915 21.3172 0.988603 21.6105 0 21.5852V22.8185C1.21079 22.8417 2.39883 22.4878 3.39943 21.8056C4.20852 21.237 5.17907 20.9436 6.16767 20.969V20.968Z" fill="white"/>
<path fill-rule="evenodd" clip-rule="evenodd" d="M20.9697 15.9644C23.7666 15.6681 26.4843 14.8555 28.9848 13.5679C31.4853 14.8556 34.203 15.6682 37 15.9644V23.0609C36.9172 28.1625 33.746 32.7032 28.9848 34.5376C24.2237 32.7032 21.0525 28.1625 20.9697 23.0609V15.9644ZM26.7015 27.5724C26.9424 27.8126 27.3323 27.8126 27.5732 27.5724L34.357 20.7886L33.4854 19.9169L27.1373 26.2649L24.4893 23.6169L23.6177 24.4886L26.7015 27.5724Z" fill="white"/>
</svg>
