<svg width="227" height="178" viewBox="0 0 227 178" fill="none" xmlns="http://www.w3.org/2000/svg">
<rect y="168.477" width="227" height="0.121359" fill="#EBEBEB"/>
<rect x="186.566" y="176.295" width="16.0926" height="0.121359" fill="#EBEBEB"/>
<rect x="146.246" y="177.616" width="4.22248" height="0.121359" fill="#EBEBEB"/>
<rect x="179.548" y="171.786" width="9.32356" height="0.121359" fill="#EBEBEB"/>
<rect x="25.4883" y="172.602" width="20.985" height="0.121359" fill="#EBEBEB"/>
<rect x="47.4272" y="172.602" width="3.07509" height="0.121359" fill="#EBEBEB"/>
<rect x="58.7216" y="174.652" width="45.5165" height="0.121359" fill="#EBEBEB"/>
<path fill-rule="evenodd" clip-rule="evenodd" d="M21.3341 137.406H115.151C115.888 137.406 116.593 137.114 117.114 136.593C117.634 136.072 117.926 135.366 117.926 134.63V2.7742C117.926 1.24205 116.684 0 115.151 0H21.3341C19.8132 0.00269195 18.5781 1.22934 18.5649 2.75013V134.632C18.5649 136.162 19.8039 137.403 21.3341 137.406ZM18.6862 2.75314C18.6862 1.28997 19.8709 0.103062 21.3341 0.100296L115.151 0.0972876C116.615 0.100047 117.801 1.28615 117.804 2.75013V134.633C117.801 136.097 116.615 137.283 115.151 137.286H21.3341C19.8709 137.283 18.6862 136.096 18.6862 134.633V2.75314Z" fill="#EBEBEB"/>
</svg>
